<svg width="48" height="48" viewBox="0 0 48 48" fill="none" xmlns="http://www.w3.org/2000/svg">
<rect width="48" height="48" rx="24" fill="#FEE4E2"/>
<path d="M33 24C33 19.0312 28.9688 15 24 15C19.0312 15 15 19.0312 15 24C15 28.9688 19.0312 33 24 33C28.9688 33 33 28.9688 33 24Z" stroke="#F04438" stroke-width="1.5" stroke-miterlimit="10"/>
<path d="M23.7307 19.7837L23.9998 25.5001L24.2684 19.7837C24.2701 19.7472 24.2642 19.7107 24.2513 19.6764C24.2384 19.6422 24.2186 19.611 24.1932 19.5847C24.1678 19.5583 24.1373 19.5375 24.1036 19.5233C24.0698 19.5092 24.0336 19.5021 23.997 19.5025C23.9609 19.5028 23.9251 19.5104 23.892 19.5249C23.8589 19.5393 23.829 19.5603 23.8041 19.5865C23.7793 19.6128 23.76 19.6438 23.7474 19.6776C23.7348 19.7115 23.7291 19.7476 23.7307 19.7837Z" stroke="#F04438" stroke-width="1.5" stroke-linecap="round" stroke-linejoin="round"/>
<path d="M24 29.2456C23.8146 29.2456 23.6333 29.1906 23.4792 29.0876C23.325 28.9846 23.2048 28.8382 23.1339 28.6669C23.0629 28.4956 23.0443 28.3071 23.0805 28.1252C23.1167 27.9434 23.206 27.7763 23.3371 27.6452C23.4682 27.5141 23.6352 27.4248 23.8171 27.3886C23.999 27.3524 24.1875 27.371 24.3588 27.442C24.5301 27.5129 24.6765 27.6331 24.7795 27.7873C24.8825 27.9414 24.9375 28.1227 24.9375 28.3081C24.9375 28.5567 24.8387 28.7952 24.6629 28.971C24.4871 29.1468 24.2486 29.2456 24 29.2456Z" fill="#F04438"/>
</svg>
