<svg xmlns="http://www.w3.org/2000/svg" width="48" height="48" viewBox="0 0 48 48" fill="none">
  <path d="M0 24C0 5.76 5.76 0 24 0C42.24 0 48 5.76 48 24C48 42.24 42.24 48 24 48C5.76 48 0 42.24 0 24Z" fill="#00C1A2"/>
  <path d="M0.5 24C0.5 14.9015 1.9441 9.083 5.51355 5.51355C9.083 1.9441 14.9015 0.5 24 0.5C33.0985 0.5 38.917 1.9441 42.4864 5.51355C46.0559 9.083 47.5 14.9015 47.5 24C47.5 33.0985 46.0559 38.917 42.4864 42.4864C38.917 46.0559 33.0985 47.5 24 47.5C14.9015 47.5 9.083 46.0559 5.51355 42.4864C1.9441 38.917 0.5 33.0985 0.5 24Z" stroke="black" stroke-opacity="0.05"/>

  <g transform="translate(9 9)">
    <svg xmlns="http://www.w3.org/2000/svg" width="30" height="30" viewBox="0 0 30 30" fill="none" x='9' y='9'>
      <g clip-path="url(#clip0_2244_44622)">
        <path d="M28.1594 0C27.5458 0 26.9739 0.30156 26.6308 0.811092L25.9133 1.89255C25.6637 1.86135 25.4141 1.85095 25.1438 1.88215C22.4401 0.644714 19.3621 1.80936 15.8266 3.15078C14.9635 3.48354 14.0588 3.82669 13.1334 4.13865C8.41239 5.77123 3.28588 8.16291 1.02938 13.5702C-0.624 17.4801 0.0727067 20.5789 0.686225 23.3241C0.831805 23.9688 0.977386 24.6031 1.08137 25.2478C1.12297 25.5078 1.20616 25.7574 1.29974 26.0069C1.29974 26.0381 1.29974 26.0693 1.28934 26.1005C1.15416 26.9428 1.34134 27.6707 1.84047 28.1698C2.22522 28.5546 2.76595 28.7626 3.38986 28.7626C3.55624 28.7626 3.73302 28.7522 3.90979 28.721C3.94099 28.721 3.96179 28.721 3.99298 28.7106C4.24255 28.8042 4.50252 28.8873 4.77288 28.9289C5.40719 29.0329 6.05191 29.1785 6.69662 29.3241C8.17323 29.6568 9.75381 30.0104 11.5112 30.0104C13.019 30.0104 14.6516 29.7504 16.4609 28.9913C22.4921 26.4541 24.6446 20.1733 25.7989 16.7938C26.142 15.8059 26.506 14.8596 26.8595 13.9549C28.201 10.5026 29.3656 7.5078 28.1386 4.84575C28.1698 4.58579 28.1594 4.33622 28.1282 4.08666L29.1992 3.36915C29.7088 3.026 30.0103 2.45407 30.0103 1.84055C30.0103 0.831889 29.1888 0.0103986 28.1802 0.0103986L28.1594 0ZM2.75555 14.2981C4.73129 9.58752 9.20269 7.487 13.7469 5.91681C14.6932 5.59445 15.6186 5.2409 16.5025 4.90815C18.2807 4.23224 19.9237 3.61872 21.3899 3.36915C20.4124 3.92028 19.3725 4.57539 18.2599 5.2721C17.4904 5.75043 16.7001 6.25996 15.889 6.7487C11.8543 9.18198 7.29974 12.312 4.21135 17.0121C3.1507 18.6239 2.53718 19.9757 2.16283 21.1612C1.78848 19.1023 1.66369 16.9081 2.76595 14.2981H2.75555ZM5.08484 26.662C4.5857 26.714 4.08657 26.7764 3.58744 26.8596C3.29628 26.9012 3.17149 26.8596 3.16109 26.8388C3.1403 26.818 3.0883 26.6932 3.1403 26.4125C3.22349 25.9133 3.27548 25.4142 3.33787 24.9151C3.54584 23.0433 3.76421 21.1092 5.78154 18.052C8.66196 13.6638 12.9982 10.7002 16.8561 8.37088C17.6776 7.87175 18.4886 7.36222 19.2581 6.87348C21.6082 5.39688 24.2079 3.7539 25.4973 3.7539C25.7469 3.7539 25.9445 3.81629 26.0796 3.95147C26.9011 4.77296 24.9462 7.85095 23.22 10.565C22.7001 11.3865 22.149 12.2496 21.6186 13.123C19.9445 15.8891 16.8353 21.0468 11.9687 24.2392C8.91153 26.2565 6.96699 26.4645 5.09524 26.6724L5.08484 26.662ZM25.0918 13.2582C24.7278 14.1941 24.3535 15.1612 23.9999 16.1698C22.9393 19.2686 20.9531 25.0399 15.7018 27.2444C13.0814 28.3466 10.8873 28.2218 8.81794 27.8371C10.0138 27.4523 11.3656 26.8492 12.9774 25.7886C18.1975 22.357 21.4523 16.9705 23.1992 14.0693C23.7192 13.2062 24.2599 12.3536 24.7798 11.5425C25.4557 10.4818 26.09 9.48354 26.6204 8.54766C26.3708 9.93068 25.7677 11.4905 25.0814 13.2478L25.0918 13.2582Z" fill="white"/>
        <path d="M8.48527 17.2201C6.66551 19.435 5.42808 21.7123 4.79376 23.9792C4.68977 24.3536 4.90814 24.7383 5.28249 24.8423C5.34489 24.8631 5.40728 24.8631 5.46967 24.8631C5.78163 24.8631 6.06239 24.6551 6.14558 24.3432C6.7279 22.2634 7.87175 20.1629 9.56672 18.0936C9.81629 17.792 9.7747 17.3553 9.47314 17.1057C9.17158 16.8562 8.73483 16.8978 8.48527 17.1993V17.2201Z" fill="white"/>
        <path d="M13.4246 13.487C13.1958 13.175 12.7487 13.1127 12.4367 13.3414C12.4055 13.3622 11.5841 13.9757 10.4714 15.0676C10.1906 15.338 10.1906 15.7851 10.461 16.0659C10.5962 16.2114 10.7834 16.2738 10.9601 16.2738C11.1369 16.2738 11.3137 16.2114 11.4489 16.0763C12.4887 15.0676 13.2686 14.4853 13.279 14.4749C13.591 14.2461 13.6534 13.799 13.4246 13.487Z" fill="white"/>
      </g>
      <defs>
        <clipPath id="clip0_2244_44622">
          <rect width="30" height="30" fill="white"/>
        </clipPath>
      </defs>
    </svg>
  </g>
</svg>
