<svg xmlns="http://www.w3.org/2000/svg" width="16" height="16" viewBox="0 0 16 16" fill="none">
  <path d="M0 8C0 10.1217 0.842854 12.1566 2.34315 13.6569C3.84344 15.1571 5.87827 16 8 16C10.1217 16 12.1566 15.1571 13.6569 13.6569C15.1571 12.1566 16 10.1217 16 8C16 5.87827 15.1571 3.84344 13.6569 2.34315C12.1566 0.842854 10.1217 0 8 0C5.87827 0 3.84344 0.842854 2.34315 2.34315C0.842854 3.84344 0 5.87827 0 8Z" fill="#FF6242"/>
  <path d="M8 0C6.41775 0 4.87103 0.469192 3.55544 1.34824C2.23985 2.22729 1.21447 3.47672 0.608967 4.93853C0.00346627 6.40034 -0.15496 8.00887 0.153721 9.56072C0.462403 11.1126 1.22433 12.538 2.34315 13.6569C3.46197 14.7757 4.88743 15.5376 6.43928 15.8463C7.99113 16.155 9.59966 15.9965 11.0615 15.391C12.5233 14.7855 13.7727 13.7602 14.6518 12.4446C15.5308 11.129 16 9.58225 16 8C16 5.87827 15.1571 3.84344 13.6569 2.34315C12.1566 0.842854 10.1217 0 8 0ZM8 14.8C6.5562 14.8 5.14482 14.3719 3.94434 13.5697C2.74386 12.7676 1.8082 11.6275 1.25568 10.2936C0.703163 8.95969 0.558599 7.4919 0.840271 6.07584C1.12194 4.65978 1.8172 3.35904 2.83812 2.33812C3.85905 1.3172 5.15978 0.621939 6.57584 0.340267C7.9919 0.0585953 9.45969 0.20316 10.7936 0.755679C12.1275 1.3082 13.2676 2.24386 14.0697 3.44434C14.8719 4.64481 15.3 6.05619 15.3 7.5C15.3 9.43608 14.5309 11.2929 13.1619 12.6619C11.7929 14.0309 9.93608 14.8 8 14.8Z" fill="#E04122"/>
  <path d="M5.6001 1.6C5.6001 1.75913 5.85295 1.91174 6.30304 2.02426C6.75313 2.13679 7.36358 2.2 8.0001 2.2C8.63662 2.2 9.24707 2.13679 9.69715 2.02426C10.1472 1.91174 10.4001 1.75913 10.4001 1.6C10.4001 1.44087 10.1472 1.28826 9.69715 1.17574C9.24707 1.06321 8.63662 1 8.0001 1C7.36358 1 6.75313 1.06321 6.30304 1.17574C5.85295 1.28826 5.6001 1.44087 5.6001 1.6Z" fill="#FF866E"/>
  <path d="M4.2002 8.4C4.2002 8.50609 4.24234 8.60783 4.31735 8.68284C4.39237 8.75786 4.49411 8.8 4.6002 8.8C4.70628 8.8 4.80802 8.75786 4.88304 8.68284C4.95805 8.60783 5.0002 8.50609 5.0002 8.4C5.0002 8.29391 4.95805 8.19217 4.88304 8.11716C4.80802 8.04214 4.70628 8 4.6002 8C4.49411 8 4.39237 8.04214 4.31735 8.11716C4.24234 8.19217 4.2002 8.29391 4.2002 8.4Z" fill="#45413C" stroke="#45413C" stroke-linecap="round" stroke-linejoin="round"/>
  <path d="M6.1321 7.79999C6.1321 7.79999 4.9321 5.99999 3.6001 6.59999" stroke="#45413C" stroke-width="0.8" stroke-linecap="round" stroke-linejoin="round"/>
  <path d="M9.86768 7.79999C9.86768 7.79999 11.0677 5.99999 12.3997 6.59999" stroke="#45413C" stroke-width="0.8" stroke-linecap="round" stroke-linejoin="round"/>
  <path d="M11 8.4C11 8.50609 11.0421 8.60783 11.1172 8.68284C11.1922 8.75786 11.2939 8.8 11.4 8.8C11.5061 8.8 11.6078 8.75786 11.6828 8.68284C11.7579 8.60783 11.8 8.50609 11.8 8.4C11.8 8.29391 11.7579 8.19217 11.6828 8.11716C11.6078 8.04214 11.5061 8 11.4 8C11.2939 8 11.1922 8.04214 11.1172 8.11716C11.0421 8.19217 11 8.29391 11 8.4Z" fill="#45413C" stroke="#45413C" stroke-linecap="round" stroke-linejoin="round"/>
  <path d="M6 12C6.59201 11.6044 7.28801 11.3933 8 11.3933C8.71199 11.3933 9.40799 11.6044 10 12" stroke="#45413C" stroke-width="0.8" stroke-linecap="round"/>
  <path d="M10.7681 2.74805C10.7186 3.00864 10.5679 3.23905 10.3491 3.38895C10.1303 3.53884 9.86098 3.59604 9.6001 3.54805" stroke="#45413C" stroke-width="0.8" stroke-linecap="round" stroke-linejoin="round"/>
  <path d="M12.1606 4.6C12.0257 4.51797 11.9083 4.41011 11.8151 4.28262C11.7219 4.15512 11.6548 4.0105 11.6177 3.85703C11.5805 3.70356 11.574 3.54426 11.5985 3.38827C11.6231 3.23228 11.6781 3.08266 11.7606 2.948" stroke="#45413C" stroke-width="0.8" stroke-linecap="round" stroke-linejoin="round"/>
  <path d="M9.81641 4.50806C10.097 4.35797 10.4257 4.32549 10.7303 4.41776C11.0348 4.51002 11.2903 4.71948 11.4404 5.00005" stroke="#45413C" stroke-width="0.8" stroke-linecap="round" stroke-linejoin="round"/>
  <path d="M13.8001 10.5999C13.8001 11.1532 13.0535 11.5999 12.1335 11.5999C11.2135 11.5999 10.4668 11.1532 10.4668 10.5999C10.4668 10.0465 11.2135 9.59985 12.1335 9.59985C13.0535 9.59985 13.8001 10.0465 13.8001 10.5999Z" fill="#E04122"/>
  <path d="M2.2002 10.6001C2.2002 11.1534 2.94686 11.6001 3.86686 11.6001C4.78686 11.6001 5.53353 11.1534 5.53353 10.6001C5.53353 10.0468 4.78686 9.6001 3.86686 9.6001C2.94686 9.6001 2.2002 10.0468 2.2002 10.6001Z" fill="#E04122"/>
</svg>