<svg width="36" height="36" viewBox="0 0 36 36" fill="none" xmlns="http://www.w3.org/2000/svg">
<g id="Avatar">
<g id="Avatar_2">
<path d="M0 18C0 4.32 4.32 0 18 0C31.68 0 36 4.32 36 18C36 31.68 31.68 36 18 36C4.32 36 0 31.68 0 18Z" fill="#EEF1F6"/>
<path d="M0.5 18C0.5 11.1815 1.5841 6.863 4.22355 4.22355C6.863 1.5841 11.1815 0.5 18 0.5C24.8185 0.5 29.137 1.5841 31.7764 4.22355C34.4159 6.863 35.5 11.1815 35.5 18C35.5 24.8185 34.4159 29.137 31.7764 31.7764C29.137 34.4159 24.8185 35.5 18 35.5C11.1815 35.5 6.863 34.4159 4.22355 31.7764C1.5841 29.137 0.5 24.8185 0.5 18Z" stroke="black" stroke-opacity="0.05"/>
</g>
<g id="16 / plus" clip-path="url(#clip0_999_20833)">
<path id="Vector" d="M18 12.75V23.25" stroke="#414D5C" stroke-width="1.25" stroke-linecap="round" stroke-linejoin="round"/>
<path id="Vector_2" d="M12.75 18H23.25" stroke="#414D5C" stroke-width="1.25" stroke-linecap="round" stroke-linejoin="round"/>
</g>
</g>
<defs>
<clipPath id="clip0_999_20833">
<rect width="18" height="18" fill="white" transform="translate(9 9)"/>
</clipPath>
</defs>
</svg>
