<svg xmlns="http://www.w3.org/2000/svg" width="8" height="22" viewBox="0 0 8 22" fill="none">
  <path d="M5.56586 3.47479L3.99961 12.8748L2.43336 3.47479C2.39579 3.2475 2.40814 3.01476 2.46956 2.79272C2.53097 2.57068 2.63998 2.36466 2.78901 2.18898C2.93803 2.0133 3.12351 1.87216 3.33256 1.77536C3.54162 1.67856 3.76923 1.62842 3.99961 1.62842C4.22999 1.62842 4.4576 1.67856 4.66665 1.77536C4.87571 1.87216 5.06119 2.0133 5.21021 2.18898C5.35924 2.36466 5.46825 2.57068 5.52966 2.79272C5.59108 3.01476 5.60343 3.2475 5.56586 3.47479Z" fill="#F04438" stroke="#F04438" stroke-width="3" stroke-linecap="round" stroke-linejoin="round"/>
  <path d="M4 21C4.69036 21 5.25 20.4404 5.25 19.75C5.25 19.0596 4.69036 18.5 4 18.5C3.30964 18.5 2.75 19.0596 2.75 19.75C2.75 20.4404 3.30964 21 4 21Z" fill="#F04438" stroke="#F04438" stroke-width="2"/>
</svg>