<svg xmlns="http://www.w3.org/2000/svg" width="100%" height="100%" viewBox="0 0 18 18" fill="none">
  <path d="M13.1665 1.78333C14.4234 2.50905 15.469 3.55044 16.1997 4.80442C16.9304 6.0584 17.321 7.48148 17.3327 8.93278C17.3444 10.3841 16.9769 11.8133 16.2665 13.0789C15.5561 14.3445 14.5275 15.4027 13.2825 16.1486C12.0375 16.8945 10.6193 17.3024 9.16825 17.3317C7.7172 17.3611 6.28363 17.011 5.00947 16.316C3.7353 15.6211 2.66473 14.6054 1.90373 13.3696C1.14272 12.1338 0.717678 10.7206 0.670671 9.27L0.666504 9L0.670671 8.73C0.71734 7.29082 1.13613 5.8883 1.8862 4.65916C2.63628 3.43002 3.69205 2.41621 4.95058 1.71657C6.20911 1.01693 7.62746 0.65533 9.06734 0.667031C10.5072 0.678732 11.9195 1.06333 13.1665 1.78333ZM12.089 6.74417C11.9455 6.60069 11.7546 6.51449 11.5521 6.50176C11.3496 6.48902 11.1493 6.55062 10.989 6.675L10.9107 6.74417L8.1665 9.4875L7.089 8.41083L7.01067 8.34167C6.85032 8.21738 6.65015 8.15585 6.44767 8.16863C6.2452 8.1814 6.05434 8.2676 5.91089 8.41105C5.76744 8.55451 5.68124 8.74536 5.66847 8.94784C5.65569 9.15031 5.71722 9.35049 5.8415 9.51083L5.91067 9.58917L7.57734 11.2558L7.65567 11.325C7.80182 11.4384 7.98153 11.4999 8.1665 11.4999C8.35148 11.4999 8.53119 11.4384 8.67734 11.325L8.75567 11.2558L12.089 7.9225L12.1582 7.84417C12.2825 7.68383 12.3441 7.48362 12.3314 7.2811C12.3187 7.07858 12.2325 6.88766 12.089 6.74417Z" fill="current"/>
</svg>