<svg xmlns="http://www.w3.org/2000/svg" width="14" height="16" viewBox="0 0 14 16" fill="none">
  <path fill-rule="evenodd" clip-rule="evenodd" d="M13.802 13.9996C13.802 13.8383 13.7379 13.6835 13.6238 13.5694C13.5097 13.4553 13.355 13.3911 13.1936 13.391H0.806642C0.645283 13.3911 0.490565 13.4553 0.376485 13.5694C0.262405 13.6835 0.198295 13.8383 0.198242 13.9996V14.7738C0.198216 14.8537 0.213935 14.9329 0.2445 15.0067C0.275066 15.0805 0.319879 15.1476 0.37638 15.2041C0.43288 15.2606 0.49996 15.3054 0.573786 15.336C0.647613 15.3665 0.726739 15.3823 0.806642 15.3822H13.1936C13.2736 15.3823 13.3527 15.3666 13.4265 15.336C13.5004 15.3055 13.5675 15.2607 13.624 15.2042C13.6805 15.1476 13.7253 15.0806 13.7558 15.0067C13.7864 14.9329 13.8021 14.8537 13.802 14.7738V13.9996ZM1.92384 5.68663L1.92044 5.68323L1.92004 5.68363C1.80262 5.58124 1.65224 5.52458 1.49644 5.52403C1.32588 5.5242 1.16216 5.59112 1.04031 5.71046C0.918454 5.82981 0.848152 5.99211 0.844442 6.16263H0.828442V12.0102H0.849042C0.880042 12.342 1.15624 12.6032 1.49644 12.6032C1.49884 12.6032 1.50124 12.6026 1.50364 12.6024V12.6032H12.4962V12.588C12.4988 12.588 12.501 12.5888 12.5036 12.5888C12.8386 12.5888 13.1118 12.3352 13.1494 12.0102H13.1568V6.28403C13.177 6.18887 13.1757 6.09039 13.153 5.9958C13.1303 5.90121 13.0867 5.81289 13.0255 5.73728C12.9643 5.66167 12.887 5.60069 12.7992 5.55877C12.7114 5.51686 12.6153 5.49509 12.518 5.49503C12.3628 5.49503 12.2222 5.55143 12.11 5.64163L12.1082 5.63983L12.09 5.65803C12.0678 5.67736 12.047 5.69821 12.0276 5.72043L10.6514 7.09663L7.48104 3.92623L7.47484 3.93243C7.41412 3.8673 7.34065 3.81536 7.25901 3.77982C7.17736 3.74428 7.08929 3.7259 7.00024 3.72583C6.91101 3.72592 6.82275 3.74438 6.74096 3.78006C6.65917 3.81574 6.5856 3.86788 6.52484 3.93323L6.51784 3.92623L3.34044 7.10323L1.98724 5.74983C1.96748 5.72743 1.9463 5.70632 1.92384 5.68663ZM11.5946 7.36543V7.38443H11.5756L11.5946 7.36543Z" fill="#6CE9A6"/>
  <path d="M1.47012 4.63457C2.1375 4.63457 2.67852 4.09355 2.67852 3.42617C2.67852 2.75879 2.1375 2.21777 1.47012 2.21777C0.802738 2.21777 0.261719 2.75879 0.261719 3.42617C0.261719 4.09355 0.802738 4.63457 1.47012 4.63457Z" fill="#36BFFA"/>
  <path d="M12.4701 4.63457C13.1375 4.63457 13.6785 4.09355 13.6785 3.42617C13.6785 2.75879 13.1375 2.21777 12.4701 2.21777C11.8027 2.21777 11.2617 2.75879 11.2617 3.42617C11.2617 4.09355 11.8027 4.63457 12.4701 4.63457Z" fill="#36BFFA"/>
  <path d="M7.06973 3.03448C7.73711 3.03448 8.27813 2.49346 8.27813 1.82608C8.27813 1.15869 7.73711 0.617676 7.06973 0.617676C6.40235 0.617676 5.86133 1.15869 5.86133 1.82608C5.86133 2.49346 6.40235 3.03448 7.06973 3.03448Z" fill="#36BFFA"/>
</svg>