<svg xmlns="http://www.w3.org/2000/svg" width="100%" height="100%" viewBox="0 0 20 20" fill="none">
  <g clip-path="url(#clip0_1690_32682)">
    <path d="M7.5 12.5L12.5 7.5" stroke="#414D5C" stroke-width="1.33" stroke-linecap="round" stroke-linejoin="round"/>
    <path d="M9.16675 5.00005L9.55258 4.55338C10.3341 3.77199 11.394 3.33305 12.4991 3.33313C13.6043 3.33321 14.6641 3.7723 15.4455 4.5538C16.2269 5.33531 16.6658 6.39521 16.6658 7.50035C16.6657 8.60548 16.2266 9.66532 15.4451 10.4467L15.0001 10.8334" stroke="#414D5C" stroke-width="1.33" stroke-linecap="round" stroke-linejoin="round"/>
    <path d="M10.8334 15L10.5025 15.445C9.71191 16.2268 8.64486 16.6653 7.53295 16.6653C6.42105 16.6653 5.354 16.2268 4.56337 15.445C4.17367 15.0596 3.86428 14.6008 3.65313 14.0951C3.44198 13.5893 3.33325 13.0468 3.33325 12.4987C3.33325 11.9507 3.44198 11.4081 3.65313 10.9023C3.86428 10.3966 4.17367 9.93779 4.56337 9.55246L5.00004 9.16663" stroke="#414D5C" stroke-width="1.33" stroke-linecap="round" stroke-linejoin="round"/>
  </g>
  <defs>
    <clipPath id="clip0_1690_32682">
      <rect width="100%" height="100%" fill="white"/>
    </clipPath>
  </defs>
</svg>