<svg xmlns="http://www.w3.org/2000/svg" width="20" height="100%" viewBox="0 0 20 20" fill="none">
<path d="M10 17.475L10.0007 17.475C11.9823 17.4728 13.8821 16.6846 15.2833 15.2833C16.6846 13.8821 17.4728 11.9823 17.475 10.0007V10C17.475 8.52158 17.0366 7.07637 16.2152 5.84711C15.3939 4.61786 14.2264 3.65977 12.8606 3.094C11.4947 2.52824 9.99171 2.38021 8.5417 2.66863C7.09169 2.95705 5.75978 3.66898 4.71438 4.71438C3.66898 5.75977 2.95706 7.09169 2.66863 8.5417C2.38021 9.99171 2.52824 11.4947 3.094 12.8606C3.65977 14.2264 4.61786 15.3939 5.84711 16.2152C7.07637 17.0366 8.52159 17.475 10 17.475ZM7.25335 8.10648L7.3704 7.51801L7.25335 8.10649C7.31881 8.11951 7.37895 8.15165 7.42615 8.19885C7.47335 8.24605 7.5055 8.30619 7.51852 8.37166C7.53154 8.43712 7.52486 8.50499 7.49931 8.56666C7.47377 8.62833 7.43051 8.68104 7.37501 8.71812L7.70835 9.217L7.37501 8.71812C7.31951 8.75521 7.25425 8.775 7.1875 8.775C7.09799 8.775 7.01215 8.73944 6.94885 8.67615C6.88556 8.61286 6.85 8.52701 6.85 8.4375C6.85 8.37075 6.8698 8.3055 6.90688 8.24999C6.94397 8.19449 6.99668 8.15124 7.05835 8.12569C7.12002 8.10015 7.18788 8.09346 7.25335 8.10648ZM12.8783 8.10648L12.9954 7.51801L12.8783 8.10649C12.9438 8.11951 13.0039 8.15165 13.0511 8.19885L13.4754 7.77459L13.0512 8.19885C13.0984 8.24605 13.1305 8.30619 13.1435 8.37166C13.1565 8.43712 13.1499 8.50498 13.1243 8.56666C13.0988 8.62833 13.0555 8.68104 13 8.71812C12.9445 8.75521 12.8793 8.775 12.8125 8.775C12.723 8.775 12.6371 8.73944 12.5739 8.67615C12.5106 8.61285 12.475 8.52701 12.475 8.4375C12.475 8.37075 12.4948 8.3055 12.5319 8.25C12.569 8.19449 12.6217 8.15124 12.6833 8.12569C12.745 8.10015 12.8129 8.09346 12.8783 8.10648ZM6.73058 11.8875L6.71858 11.8668L6.70495 11.847C6.70299 11.8441 6.70164 11.8409 6.70099 11.8375L6.11193 11.9516L6.70099 11.8375C6.70033 11.8342 6.70039 11.8307 6.70114 11.8273C6.7019 11.8239 6.70334 11.8208 6.70538 11.818L6.2217 11.463L6.70538 11.818C6.70742 11.8152 6.71001 11.8129 6.713 11.8112C6.71598 11.8094 6.71929 11.8083 6.72271 11.808C6.72614 11.8076 6.72961 11.8079 6.7329 11.8089L6.9097 11.2355L6.73291 11.8089C6.7362 11.8099 6.73924 11.8116 6.74186 11.8139C6.74447 11.8161 6.74658 11.8189 6.74808 11.822L6.75817 11.843L6.76986 11.8632C7.09783 12.4295 7.56889 12.8996 8.13582 13.2264L8.43546 12.7065L8.13582 13.2264C8.70275 13.5532 9.34563 13.7252 10 13.7252C10.6544 13.7252 11.2973 13.5532 11.8642 13.2264C12.4196 12.9062 12.883 12.4485 13.2099 11.8977C13.2129 11.8953 13.2163 11.8937 13.2201 11.8928C13.2262 11.8914 13.2326 11.8924 13.2381 11.8956C13.2435 11.8987 13.2476 11.9038 13.2494 11.9098C13.2505 11.9132 13.2508 11.9168 13.2504 11.9202C12.9199 12.4796 12.4506 12.9444 11.8877 13.2695C11.3137 13.6009 10.6627 13.7753 10 13.7753C9.33729 13.7753 8.68626 13.6009 8.11235 13.2695C7.53844 12.9381 7.06189 12.4615 6.73058 11.8875ZM5.81934 3.74319C7.05666 2.91644 8.51133 2.47511 9.99944 2.475C11.9941 2.47898 13.906 3.27312 15.3164 4.68358C16.7268 6.09396 17.5209 8.00565 17.525 10.0002C17.525 11.4884 17.0836 12.9432 16.2568 14.1807C15.43 15.4181 14.2547 16.3826 12.8797 16.9522C11.5047 17.5217 9.99165 17.6708 8.53195 17.3804C7.07224 17.0901 5.73141 16.3734 4.67902 15.321C3.62663 14.2686 2.90995 12.9278 2.61959 11.4681C2.32924 10.0083 2.47826 8.49532 3.04781 7.12031C3.61736 5.74529 4.58186 4.57005 5.81934 3.74319Z" fill="#0F1B2A" stroke="current" stroke-width="1.2"/>
</svg>