<svg xmlns="http://www.w3.org/2000/svg" width="20" height="20" viewBox="0 0 20 20" fill="none">
  <mask id="path-1-inside-1_964_39341" fill="white">
    <path d="M8.99263 2.62622C9.08555 2.43802 9.22926 2.27957 9.40753 2.16878C9.58579 2.05798 9.79149 1.99927 10.0014 1.99927C10.2113 1.99927 10.417 2.05798 10.5952 2.16878C10.7735 2.27957 10.9172 2.43802 11.0101 2.62622L12.9114 6.47872L17.1626 7.09747C17.3705 7.12745 17.5658 7.21499 17.7264 7.35019C17.8871 7.4854 18.0067 7.66287 18.0717 7.86252C18.1367 8.06217 18.1446 8.27605 18.0944 8.47993C18.0442 8.68382 17.9379 8.86959 17.7876 9.01622L14.7101 12.015L15.4364 16.2487C15.472 16.4557 15.4489 16.6684 15.3698 16.863C15.2908 17.0575 15.1588 17.226 14.989 17.3494C14.8191 17.4729 14.6181 17.5463 14.4086 17.5614C14.1992 17.5765 13.9897 17.5327 13.8039 17.435L10.0014 15.435L6.19888 17.435C6.01305 17.5327 5.80356 17.5765 5.59412 17.5614C5.38469 17.5463 5.18366 17.4729 5.01379 17.3494C4.84393 17.226 4.71199 17.0575 4.63292 16.863C4.55385 16.6684 4.5308 16.4557 4.56638 16.2487L5.29138 12.015L2.21638 9.01497C2.06647 8.86838 1.96051 8.6828 1.91045 8.47919C1.8604 8.27557 1.86825 8.06202 1.93311 7.86263C1.99797 7.66323 2.11726 7.48593 2.27753 7.35073C2.4378 7.21554 2.63266 7.12782 2.84013 7.09747L7.09013 6.47872L8.99263 2.62622ZM10.0001 3.40747L8.18263 7.09122C8.10193 7.25461 7.98275 7.39594 7.83534 7.50307C7.68793 7.6102 7.5167 7.67991 7.33638 7.70622L3.27013 8.29747L6.21263 11.165C6.34313 11.2924 6.44068 11.4497 6.49686 11.6233C6.55304 11.7968 6.56618 11.9815 6.53513 12.1612L5.84138 16.2112L9.47888 14.2987C9.64023 14.214 9.81975 14.1697 10.002 14.1697C10.1843 14.1697 10.3638 14.214 10.5251 14.2987L14.1626 16.2112L13.4676 12.1612C13.4366 11.9815 13.4497 11.7968 13.5059 11.6233C13.5621 11.4497 13.6596 11.2924 13.7901 11.165L16.7326 8.29747L12.6664 7.70622C12.4861 7.67991 12.3148 7.6102 12.1674 7.50307C12.02 7.39594 11.9008 7.25461 11.8201 7.09122L10.0001 3.40747Z"/>
  </mask>
  <path d="M8.99263 2.62622L10.1851 3.21513L10.1852 3.21502L8.99263 2.62622ZM10.0014 1.99927V0.669268V1.99927ZM11.0101 2.62622L12.2028 2.03763L12.2027 2.03742L11.0101 2.62622ZM12.9114 6.47872L11.7187 7.06732L12.0281 7.69417L12.7198 7.79486L12.9114 6.47872ZM17.1626 7.09747L16.9711 8.41361L16.9728 8.41385L17.1626 7.09747ZM17.7876 9.01622L18.7158 9.96878L18.7164 9.96823L17.7876 9.01622ZM14.7101 12.015L13.7819 11.0624L13.281 11.5505L13.3993 12.2398L14.7101 12.015ZM15.4364 16.2487L14.1255 16.4736L14.1256 16.4741L15.4364 16.2487ZM13.8039 17.435L14.4231 16.2579L14.423 16.2579L13.8039 17.435ZM10.0014 15.435L10.6205 14.2579L10.0014 13.9322L9.38226 14.2579L10.0014 15.435ZM6.19888 17.435L5.57976 16.2579L5.57967 16.2579L6.19888 17.435ZM4.56638 16.2487L5.87715 16.4741L5.8773 16.4732L4.56638 16.2487ZM5.29138 12.015L6.6023 12.2395L6.72022 11.5509L6.22015 11.063L5.29138 12.015ZM2.21638 9.01497L1.2865 9.96588L1.28761 9.96696L2.21638 9.01497ZM2.84013 7.09747L2.64852 5.78135L2.64767 5.78147L2.84013 7.09747ZM7.09013 6.47872L7.28174 7.79485L7.97323 7.69417L8.28264 7.06763L7.09013 6.47872ZM10.0001 3.40747L11.1925 2.81835L9.99931 0.403214L8.8074 2.819L10.0001 3.40747ZM8.18263 7.09122L9.3751 7.68022L9.37536 7.67969L8.18263 7.09122ZM7.33638 7.70622L7.52776 9.02238L7.52839 9.02229L7.33638 7.70622ZM3.27013 8.29747L3.07876 6.98131L0.411814 7.3691L2.3419 9.24999L3.27013 8.29747ZM6.21263 11.165L7.14196 10.2135L7.14086 10.2125L6.21263 11.165ZM6.53513 12.1612L5.22453 11.9349L5.22422 11.9367L6.53513 12.1612ZM5.84138 16.2112L4.53047 15.9867L4.07558 18.6423L6.46032 17.3884L5.84138 16.2112ZM9.47888 14.2987L8.86043 13.1213L8.85994 13.1215L9.47888 14.2987ZM10.002 14.1697V12.8397V14.1697ZM10.5251 14.2987L11.1441 13.1215L11.1436 13.1213L10.5251 14.2987ZM14.1626 16.2112L13.5437 17.3884L15.9293 18.6427L15.4735 15.9863L14.1626 16.2112ZM13.4676 12.1612L14.7785 11.9363L14.7782 11.9349L13.4676 12.1612ZM13.7901 11.165L12.8619 10.2125L12.8608 10.2135L13.7901 11.165ZM16.7326 8.29747L17.6609 9.24999L19.5909 7.3691L16.924 6.98131L16.7326 8.29747ZM12.6664 7.70622L12.4744 9.02229L12.475 9.02238L12.6664 7.70622ZM11.8201 7.09122L13.0126 6.50222L13.0125 6.5021L11.8201 7.09122ZM10.1852 3.21502C10.1683 3.24932 10.1421 3.27819 10.1096 3.29838L8.70546 1.03917C8.31645 1.28095 8.00283 1.62673 7.80006 2.03742L10.1852 3.21502ZM10.1096 3.29838C10.0771 3.31857 10.0396 3.32927 10.0014 3.32927V0.669268C9.54336 0.669268 9.09447 0.797398 8.70546 1.03917L10.1096 3.29838ZM10.0014 3.32927C9.96313 3.32927 9.92565 3.31857 9.89317 3.29838L11.2973 1.03917C10.9083 0.797399 10.4594 0.669268 10.0014 0.669268V3.32927ZM9.89317 3.29838C9.86068 3.27819 9.83449 3.24932 9.81756 3.21502L12.2027 2.03742C11.9999 1.62673 11.6863 1.28095 11.2973 1.03917L9.89317 3.29838ZM9.81746 3.21482L11.7187 7.06732L14.104 5.89013L12.2028 2.03763L9.81746 3.21482ZM12.7198 7.79486L16.9711 8.41361L17.3542 5.78134L13.1029 5.16259L12.7198 7.79486ZM16.9728 8.41385C16.9349 8.40839 16.8993 8.39244 16.87 8.3678L18.5828 6.33259C18.2322 6.03754 17.806 5.84651 17.3525 5.78109L16.9728 8.41385ZM16.87 8.3678C16.8408 8.34316 16.819 8.31082 16.8071 8.27444L19.3363 7.4506C19.1944 7.01491 18.9334 6.62763 18.5828 6.33259L16.87 8.3678ZM16.8071 8.27444C16.7953 8.23806 16.7938 8.19909 16.803 8.16194L19.3858 8.79793C19.4954 8.353 19.4782 7.88629 19.3363 7.4506L16.8071 8.27444ZM16.803 8.16194C16.8121 8.12478 16.8315 8.09093 16.8589 8.06421L18.7164 9.96823C19.0444 9.64826 19.2763 9.24287 19.3858 8.79793L16.803 8.16194ZM16.8594 8.06366L13.7819 11.0624L15.6383 12.9675L18.7158 9.96878L16.8594 8.06366ZM13.3993 12.2398L14.1255 16.4736L16.7472 16.0239L16.021 11.7901L13.3993 12.2398ZM14.1256 16.4741C14.1191 16.4364 14.1233 16.3976 14.1377 16.3621L16.6019 17.3638C16.7745 16.9393 16.8248 16.475 16.7471 16.0234L14.1256 16.4741ZM14.1377 16.3621C14.1521 16.3267 14.1762 16.296 14.2071 16.2735L15.7708 18.4254C16.1415 18.156 16.4294 17.7883 16.6019 17.3638L14.1377 16.3621ZM14.2071 16.2735C14.2381 16.251 14.2747 16.2376 14.3129 16.2349L14.5044 18.888C14.9614 18.855 15.4001 18.6947 15.7708 18.4254L14.2071 16.2735ZM14.3129 16.2349C14.3511 16.2321 14.3892 16.2401 14.4231 16.2579L13.1847 18.612C13.5902 18.8254 14.0474 18.921 14.5044 18.888L14.3129 16.2349ZM14.423 16.2579L10.6205 14.2579L9.38226 16.6121L13.1848 18.6121L14.423 16.2579ZM9.38226 14.2579L5.57976 16.2579L6.818 18.6121L10.6205 16.6121L9.38226 14.2579ZM5.57967 16.2579C5.61354 16.2401 5.65171 16.2321 5.68987 16.2349L5.49837 18.888C5.95541 18.921 6.41255 18.8254 6.81809 18.612L5.57967 16.2579ZM5.68987 16.2349C5.72804 16.2376 5.76467 16.251 5.79562 16.2735L4.23197 18.4254C4.60266 18.6947 5.04134 18.855 5.49837 18.888L5.68987 16.2349ZM5.79562 16.2735C5.82658 16.296 5.85062 16.3267 5.86503 16.3621L3.40082 17.3638C3.57337 17.7883 3.86128 18.156 4.23197 18.4254L5.79562 16.2735ZM5.86503 16.3621C5.87943 16.3976 5.88363 16.4364 5.87715 16.4741L3.25561 16.0234C3.17797 16.475 3.22827 16.9393 3.40082 17.3638L5.86503 16.3621ZM5.8773 16.4732L6.6023 12.2395L3.98046 11.7905L3.25546 16.0242L5.8773 16.4732ZM6.22015 11.063L3.14515 8.06298L1.28761 9.96696L4.36261 12.967L6.22015 11.063ZM3.14626 8.06406C3.17357 8.09078 3.19288 8.12459 3.202 8.16169L0.618904 8.79668C0.728131 9.24101 0.959361 9.64598 1.2865 9.96588L3.14626 8.06406ZM3.202 8.16169C3.21112 8.1988 3.20969 8.23771 3.19787 8.27405L0.668342 7.45121C0.526801 7.88633 0.509678 8.35234 0.618904 8.79668L3.202 8.16169ZM3.19787 8.27405C3.18606 8.31038 3.16432 8.34269 3.13511 8.36732L1.41995 6.33415C1.07021 6.62918 0.809884 7.01608 0.668342 7.45121L3.19787 8.27405ZM3.13511 8.36732C3.10591 8.39196 3.0704 8.40794 3.0326 8.41347L2.64767 5.78147C2.19492 5.84769 1.76969 6.03911 1.41995 6.33415L3.13511 8.36732ZM3.03174 8.4136L7.28174 7.79485L6.89852 5.1626L2.64852 5.78135L3.03174 8.4136ZM8.28264 7.06763L10.1851 3.21513L7.80012 2.03732L5.89762 5.88982L8.28264 7.06763ZM8.8074 2.819L6.9899 6.50275L9.37536 7.67969L11.1929 3.99595L8.8074 2.819ZM6.99016 6.50222C7.00487 6.47245 7.02658 6.4467 7.05345 6.42718L8.61723 8.57896C8.93891 8.34518 9.19899 8.03676 9.3751 7.68022L6.99016 6.50222ZM7.05345 6.42718C7.08031 6.40765 7.11151 6.39495 7.14437 6.39016L7.52839 9.02229C7.92189 8.96488 8.29554 8.81274 8.61723 8.57896L7.05345 6.42718ZM7.145 6.39006L3.07876 6.98131L3.46151 9.61363L7.52776 9.02238L7.145 6.39006ZM2.3419 9.24999L5.2844 12.1175L7.14086 10.2125L4.19837 7.34496L2.3419 9.24999ZM5.2833 12.1164C5.25952 12.0932 5.24174 12.0645 5.23151 12.0329L7.76221 11.2137C7.63961 10.8349 7.42674 10.4917 7.14196 10.2135L5.2833 12.1164ZM5.23151 12.0329C5.22127 12.0013 5.21887 11.9676 5.22453 11.9349L7.84573 12.3876C7.91348 11.9953 7.88481 11.5924 7.76221 11.2137L5.23151 12.0329ZM5.22422 11.9367L4.53047 15.9867L7.15229 16.4358L7.84604 12.3858L5.22422 11.9367ZM6.46032 17.3884L10.0978 15.4759L8.85994 13.1215L5.22244 15.034L6.46032 17.3884ZM10.0973 15.4762C10.0679 15.4916 10.0352 15.4997 10.002 15.4997V12.8397C9.60429 12.8397 9.21253 12.9363 8.86043 13.1213L10.0973 15.4762ZM10.002 15.4997C9.96879 15.4997 9.93608 15.4916 9.90668 15.4762L11.1436 13.1213C10.7915 12.9363 10.3997 12.8397 10.002 12.8397V15.4997ZM9.90619 15.4759L13.5437 17.3884L14.7816 15.034L11.1441 13.1215L9.90619 15.4759ZM15.4735 15.9863L14.7785 11.9363L12.1568 12.3862L12.8518 16.4362L15.4735 15.9863ZM14.7782 11.9349C14.7839 11.9676 14.7815 12.0013 14.7713 12.0329L12.2405 11.2137C12.1179 11.5924 12.0893 11.9953 12.157 12.3876L14.7782 11.9349ZM14.7713 12.0329C14.761 12.0645 14.7432 12.0932 14.7195 12.1164L12.8608 10.2135C12.576 10.4917 12.3632 10.8349 12.2405 11.2137L14.7713 12.0329ZM14.7184 12.1175L17.6609 9.24999L15.8044 7.34496L12.8619 10.2125L14.7184 12.1175ZM16.924 6.98131L12.8578 6.39006L12.475 9.02238L16.5413 9.61363L16.924 6.98131ZM12.8584 6.39016C12.8912 6.39495 12.9225 6.40765 12.9493 6.42718L11.3855 8.57896C11.7072 8.81274 12.0809 8.96488 12.4744 9.02229L12.8584 6.39016ZM12.9493 6.42718C12.9762 6.4467 12.9979 6.47245 13.0126 6.50222L10.6277 7.68022C10.8038 8.03676 11.0638 8.34518 11.3855 8.57896L12.9493 6.42718ZM13.0125 6.5021L11.1925 2.81835L8.80772 3.9966L10.6277 7.68035L13.0125 6.5021Z" fill="#CDD3DD" mask="url(#path-1-inside-1_964_39341)"/>
</svg>