<svg xmlns="http://www.w3.org/2000/svg" width="25" height="24" viewBox="0 0 25 24" fill="none">
  <path d="M8.64244 11.9999C9.14897 11.9999 9.65053 11.9002 10.1185 11.7063C10.5865 11.5125 11.0117 11.2284 11.3699 10.8702C11.728 10.512 12.0121 10.0868 12.206 9.61885C12.3998 9.15088 12.4996 8.64931 12.4996 8.14279C12.4996 7.63626 12.3998 7.13469 12.206 6.66672C12.0121 6.19875 11.728 5.77354 11.3699 5.41538C11.0117 5.05721 10.5865 4.77309 10.1185 4.57925C9.65053 4.38541 9.14897 4.28564 8.64244 4.28564C7.61946 4.28564 6.63838 4.69202 5.91503 5.41538C5.19167 6.13873 4.7853 7.11981 4.7853 8.14279C4.7853 9.16577 5.19167 10.1468 5.91503 10.8702C6.63838 11.5936 7.61946 11.9999 8.64244 11.9999ZM15.1567 18.5305C15.8107 18.7319 16.6259 18.8571 17.6424 18.8571C22.7853 18.8571 22.7853 15.6428 22.7853 15.6428C22.7853 15.1313 22.5821 14.6408 22.2204 14.2791C21.8588 13.9174 21.3682 13.7142 20.8567 13.7142H15.1516C15.6498 14.2325 15.9275 14.9239 15.9264 15.6428V16.1185L15.9239 16.1896C15.9058 16.4759 15.8616 16.76 15.7919 17.0382C15.6592 17.5653 15.4452 18.0685 15.1576 18.5296M20.6424 8.99993C20.6424 9.3939 20.5648 9.784 20.4141 10.148C20.2633 10.512 20.0423 10.8427 19.7638 11.1213C19.4852 11.3998 19.1545 11.6208 18.7905 11.7716C18.4265 11.9223 18.0364 11.9999 17.6424 11.9999C17.2485 11.9999 16.8584 11.9223 16.4944 11.7716C16.1304 11.6208 15.7997 11.3998 15.5211 11.1213C15.2425 10.8427 15.0216 10.512 14.8708 10.148C14.72 9.784 14.6424 9.3939 14.6424 8.99993C14.6424 8.20428 14.9585 7.44122 15.5211 6.87861C16.0837 6.316 16.8468 5.99993 17.6424 5.99993C18.4381 5.99993 19.2012 6.316 19.7638 6.87861C20.3264 7.44122 20.6424 8.20428 20.6424 8.99993ZM2.21387 15.6428C2.21387 15.1313 2.41706 14.6408 2.77873 14.2791C3.14041 13.9174 3.63095 13.7142 4.14244 13.7142H13.1424C13.6539 13.7142 14.1445 13.9174 14.5061 14.2791C14.8678 14.6408 15.071 15.1313 15.071 15.6428V16.0714C15.071 16.0714 15.071 20.5714 8.64244 20.5714C2.21387 20.5714 2.21387 16.0714 2.21387 16.0714V15.6428Z" fill="current"/>
</svg>