<svg xmlns="http://www.w3.org/2000/svg" width="16" height="16" viewBox="0 0 16 16" fill="none">
  <g clip-path="url(#clip0_962_20193)">
    <circle cx="8" cy="8" r="8" fill="#0BA5EC"/>
    <path d="M5.69575 7.0749V11.7999H4.8505C4.378 11.7999 4 11.4219 4 10.9547V7.9254C4 7.45815 4.38325 7.0749 4.8505 7.0749H5.69575ZM11.6073 6.2874H9.09775V4.4499C9.09775 3.8724 8.62525 3.3999 8.053 3.3999H8.00575C7.79575 3.3999 7.60675 3.5259 7.52275 3.72015L6.0895 7.0749V11.7999H10.9195C11.3028 11.7999 11.6283 11.5269 11.6965 11.1489L12.3895 7.2114C12.4735 6.7284 12.106 6.2874 11.6125 6.2874H11.6073Z" fill="white"/>
  </g>
  <defs>
    <clipPath id="clip0_962_20193">
      <rect width="16" height="16" rx="8" fill="white"/>
    </clipPath>
  </defs>
</svg>