<svg xmlns="http://www.w3.org/2000/svg" width="16" height="16" viewBox="0 0 16 16" fill="none">
  <path d="M0 8C0 10.1217 0.842854 12.1566 2.34315 13.6568C3.84344 15.1571 5.87827 16 8 16C10.1217 16 12.1566 15.1571 13.6569 13.6568C15.1571 12.1566 16 10.1217 16 8C16 5.87827 15.1571 3.84344 13.6569 2.34314C12.1566 0.842854 10.1217 0 8 0C5.87827 0 3.84344 0.842854 2.34315 2.34314C0.842854 3.84344 0 5.87827 0 8Z" fill="#FDE047"/>
  <path d="M8 0C6.41775 0 4.87103 0.469192 3.55544 1.34824C2.23985 2.22729 1.21447 3.47672 0.608967 4.93853C0.00346627 6.40034 -0.15496 8.00887 0.153721 9.56072C0.462403 11.1126 1.22433 12.538 2.34315 13.6569C3.46197 14.7757 4.88743 15.5376 6.43928 15.8463C7.99113 16.155 9.59966 15.9965 11.0615 15.391C12.5233 14.7855 13.7727 13.7602 14.6518 12.4446C15.5308 11.129 16 9.58225 16 8C16 5.87827 15.1571 3.84344 13.6569 2.34315C12.1566 0.842854 10.1217 0 8 0ZM8 14.8C6.5562 14.8 5.14482 14.3719 3.94434 13.5697C2.74386 12.7676 1.8082 11.6275 1.25568 10.2936C0.703163 8.95969 0.558599 7.4919 0.840271 6.07584C1.12194 4.65978 1.8172 3.35904 2.83812 2.33812C3.85905 1.3172 5.15978 0.621939 6.57584 0.340267C7.9919 0.0585953 9.45969 0.20316 10.7936 0.755679C12.1275 1.3082 13.2676 2.24386 14.0697 3.44434C14.8719 4.64481 15.3 6.05619 15.3 7.5C15.3 9.43608 14.5309 11.2929 13.1619 12.6619C11.7929 14.0309 9.93608 14.8 8 14.8Z" fill="#EAB308"/>
  <path d="M5.6001 1.6C5.6001 1.75913 5.85295 1.91174 6.30304 2.02426C6.75313 2.13679 7.36358 2.2 8.0001 2.2C8.63662 2.2 9.24707 2.13679 9.69715 2.02426C10.1472 1.91174 10.4001 1.75913 10.4001 1.6C10.4001 1.44087 10.1472 1.28826 9.69715 1.17574C9.24707 1.06321 8.63662 1 8.0001 1C7.36358 1 6.75313 1.06321 6.30304 1.17574C5.85295 1.28826 5.6001 1.44087 5.6001 1.6Z" fill="#FEF9C3"/>
  <path d="M10 11.1921C9.40799 11.5877 8.71199 11.7988 8 11.7988C7.28801 11.7988 6.59201 11.5877 6 11.1921" stroke="#45413C" stroke-linecap="round"/>
  <path d="M13.7996 9.66675C13.7996 10.2201 13.053 10.6667 12.133 10.6667C11.213 10.6667 10.4663 10.2201 10.4663 9.66675C10.4663 9.11341 11.213 8.66675 12.133 8.66675C13.053 8.66675 13.7996 9.11341 13.7996 9.66675Z" fill="#FFAA54"/>
  <path d="M2.20068 9.66675C2.20068 10.2201 2.94735 10.6667 3.86735 10.6667C4.78735 10.6667 5.53402 10.2201 5.53402 9.66675C5.53402 9.11341 4.78735 8.66675 3.86735 8.66675C2.94735 8.66675 2.20068 9.11341 2.20068 9.66675Z" fill="#FFAA54"/>
  <path d="M3.73291 7.83354C3.73291 7.64789 3.80666 7.46985 3.93794 7.33857C4.06921 7.20729 4.24726 7.13354 4.43291 7.13354C4.61856 7.13354 4.79661 7.20729 4.92788 7.33857C5.05916 7.46985 5.13291 7.64789 5.13291 7.83354" stroke="#45413C" stroke-linecap="round" stroke-linejoin="round"/>
  <path d="M10.8672 7.83354C10.8672 7.64789 10.9409 7.46985 11.0722 7.33857C11.2035 7.20729 11.3815 7.13354 11.5672 7.13354C11.7528 7.13354 11.9309 7.20729 12.0622 7.33857C12.1934 7.46985 12.2672 7.64789 12.2672 7.83354" stroke="#45413C" stroke-linecap="round" stroke-linejoin="round"/>
</svg>