<svg xmlns="http://www.w3.org/2000/svg" width="25" height="24" viewBox="0 0 25 24" fill="none">
  <path fill-rule="evenodd" clip-rule="evenodd" d="M3.02 7.823C2.5 8.77 2.5 9.915 2.5 12.203V13.725C2.5 17.625 2.5 19.576 3.672 20.788C4.843 22 6.729 22 10.5 22H14.5C18.271 22 20.157 22 21.328 20.788C22.5 19.576 22.5 17.626 22.5 13.725V12.204C22.5 9.915 22.5 8.771 21.98 7.823C21.462 6.874 20.513 6.286 18.616 5.108L16.616 3.867C14.611 2.622 13.608 2 12.5 2C11.392 2 10.39 2.622 8.384 3.867L6.384 5.108C4.487 6.286 3.539 6.874 3.02 7.823ZM9.946 15.398C9.86715 15.3366 9.77682 15.2916 9.68034 15.2657C9.58386 15.2397 9.48316 15.2333 9.38416 15.2468C9.28515 15.2603 9.18984 15.2934 9.10382 15.3442C9.01781 15.3951 8.94281 15.4626 8.88324 15.5428C8.82368 15.623 8.78074 15.7143 8.75696 15.8114C8.73317 15.9084 8.72902 16.0092 8.74474 16.1079C8.76046 16.2066 8.79574 16.3011 8.8485 16.386C8.90127 16.4708 8.97045 16.5443 9.052 16.602C10.0475 17.3463 11.257 17.749 12.5 17.75C13.7427 17.7488 14.9517 17.3461 15.947 16.602C16.0285 16.5443 16.0977 16.4708 16.1505 16.386C16.2033 16.3011 16.2385 16.2066 16.2543 16.1079C16.27 16.0092 16.2658 15.9084 16.242 15.8114C16.2183 15.7143 16.1753 15.623 16.1158 15.5428C16.0562 15.4626 15.9812 15.3951 15.8952 15.3442C15.8092 15.2934 15.7138 15.2603 15.6148 15.2468C15.5158 15.2333 15.4151 15.2397 15.3187 15.2657C15.2222 15.2916 15.1319 15.3366 15.053 15.398C14.3162 15.95 13.4206 16.2488 12.5 16.25C11.5794 16.2488 10.6828 15.95 9.946 15.398Z" fill="current"/>
</svg>