<svg xmlns="http://www.w3.org/2000/svg" width="22" height="22" viewBox="0 0 22 22" fill="none">
  <path d="M4.58333 10.1755L6.41667 8.34213L11.4583 13.3838L14.6667 10.1755L17.4167 12.9255V4.58333H4.58333V10.1755ZM3.66667 2.75H18.3333C18.8396 2.75 19.25 3.16041 19.25 3.66667V18.3333C19.25 18.8396 18.8396 19.25 18.3333 19.25H3.66667C3.16041 19.25 2.75 18.8396 2.75 18.3333V3.66667C2.75 3.16041 3.16041 2.75 3.66667 2.75ZM14.2083 9.16667C13.449 9.16667 12.8333 8.55106 12.8333 7.79167C12.8333 7.03227 13.449 6.41667 14.2083 6.41667C14.9677 6.41667 15.5833 7.03227 15.5833 7.79167C15.5833 8.55106 14.9677 9.16667 14.2083 9.16667Z" fill="#414D5C"/>
</svg>