<svg xmlns="http://www.w3.org/2000/svg" width="18" height="18" viewBox="0 0 18 18" fill="none">
<g clip-path="url(#clip0_1264_11395)">
<path d="M15.7389 9.39609C15.8192 8.02945 15.4821 6.67069 14.7722 5.50009C14.0624 4.32949 13.0134 3.40241 11.7644 2.84183C10.5155 2.28126 9.12558 2.11371 7.77918 2.36141C6.43277 2.60911 5.19351 3.26036 4.22583 4.22873C3.25814 5.1971 2.60778 6.43682 2.36104 7.7834C2.11429 9.12998 2.28283 10.5198 2.84429 11.7683C3.40574 13.0169 4.33358 14.0652 5.50468 14.7742C6.67578 15.4832 8.03478 15.8194 9.40136 15.7381" stroke="#414D5C" stroke-width="1.25" stroke-linecap="round" stroke-linejoin="round"/>
<path d="M12 14.25H16.5" stroke="#414D5C" stroke-width="1.25" stroke-linecap="round" stroke-linejoin="round"/>
<path d="M14.25 12V16.5" stroke="#414D5C" stroke-width="1.25" stroke-linecap="round" stroke-linejoin="round"/>
<path d="M6.75 7.5H6.7575" stroke="#414D5C" stroke-width="1.5" stroke-linecap="round" stroke-linejoin="round"/>
<path d="M11.25 7.5H11.2575" stroke="#414D5C" stroke-width="1.5" stroke-linecap="round" stroke-linejoin="round"/>
<path d="M7.125 11.25C7.6185 11.73 8.295 12 9 12C9.705 12 10.3815 11.73 10.875 11.25" stroke="#414D5C" stroke-width="1.25" stroke-linecap="round" stroke-linejoin="round"/>
</g>
<defs>
<clipPath id="clip0_1264_11395">
<rect width="18" height="18" fill="white"/>
</clipPath>
</defs>
</svg>