<svg xmlns="http://www.w3.org/2000/svg" width="100%" height="100%" viewBox="0 0 22 22" fill="none">
  <path d="M11.9167 13.75V6.41665M11.9167 13.75L16.962 16.6329C17.1014 16.7125 17.2592 16.7541 17.4198 16.7536C17.5803 16.7531 17.7379 16.7104 17.8767 16.6298C18.0155 16.5492 18.1308 16.4336 18.2109 16.2945C18.2911 16.1555 18.3333 15.9978 18.3333 15.8372V4.3294C18.3333 4.16887 18.2911 4.01117 18.2109 3.87208C18.1308 3.73299 18.0155 3.61738 17.8767 3.53682C17.7379 3.45626 17.5803 3.41357 17.4198 3.41303C17.2592 3.41249 17.1014 3.45411 16.962 3.53373L11.9167 6.41665M11.9167 13.75H9.16667M11.9167 6.41665H6.41667C5.44421 6.41665 4.51157 6.80295 3.82394 7.49059C3.13631 8.17822 2.75 9.11085 2.75 10.0833V10.0833C2.75 11.0558 3.13631 11.9884 3.82394 12.676C4.51157 13.3637 5.44421 13.75 6.41667 13.75M6.41667 13.75V17.875C6.41667 18.2397 6.56153 18.5894 6.81939 18.8473C7.07726 19.1051 7.42699 19.25 7.79167 19.25C8.15634 19.25 8.50608 19.1051 8.76394 18.8473C9.0218 18.5894 9.16667 18.2397 9.16667 17.875V13.75M6.41667 13.75H9.16667" stroke="current" stroke-width="1.33" stroke-linecap="round" stroke-linejoin="round"/>
</svg>