<svg xmlns="http://www.w3.org/2000/svg" width="23" height="22" viewBox="0 0 23 22" fill="none">
  <path fill-rule="evenodd" clip-rule="evenodd" d="M3.98277 21.1177C3.78129 21.098 3.58068 21.0701 3.38144 21.0343C3.2351 21.008 3.09826 20.9437 2.98468 20.8478C2.87111 20.7519 2.78481 20.6277 2.73449 20.4878C2.68416 20.3479 2.67158 20.1973 2.698 20.051C2.72443 19.9047 2.78894 19.7679 2.88503 19.6545C3.34788 19.1088 3.66396 18.4541 3.80338 17.7523C3.82933 17.6226 3.77856 17.3947 3.51682 17.1397C1.65528 15.3289 0.5 12.8728 0.5 10.1538C0.5 4.47897 5.49569 0 11.5 0C17.5043 0 22.5 4.47897 22.5 10.1538C22.5 15.8287 17.5043 20.3077 11.5 20.3077C10.5602 20.3077 9.64636 20.1983 8.77313 19.9929C7.34578 20.8899 5.6602 21.2857 3.98277 21.1177ZM4.3967 10.7699C4.3407 10.1307 4.3407 9.50679 4.3967 8.86759C4.56726 6.89628 6.18632 5.3443 8.31451 5.3443C9.67136 5.3443 10.9722 5.99373 11.5043 7.11106C11.6214 7.35651 11.6621 7.58918 11.6621 7.78605C11.6621 8.35622 11.2471 8.73208 10.6845 8.73208C10.2441 8.73208 9.96412 8.50452 9.73755 8.15424C9.46262 7.72469 9.02985 7.31304 8.25342 7.31304C7.25042 7.31304 6.53762 8.07497 6.47653 9.14884C6.45107 9.57327 6.45107 10.0642 6.47653 10.486C6.54271 11.5599 7.25296 12.3218 8.25342 12.3218C9.02985 12.3218 9.46262 11.9102 9.73755 11.4806C9.96412 11.1304 10.2441 10.9028 10.6845 10.9028C11.2471 10.9028 11.6621 11.2761 11.6621 11.8488C11.6621 12.0457 11.6188 12.2784 11.5043 12.5238C10.9722 13.6412 9.67136 14.2906 8.31451 14.2906C6.18632 14.2931 4.56726 12.7386 4.3967 10.7699ZM18.6451 13.1578V9.86723C18.6451 8.40729 17.693 7.38201 16.2012 7.38201C15.5775 7.38201 15.0888 7.55331 14.7171 7.78087V6.33883C14.7171 5.66894 14.3149 5.26497 13.709 5.26497C13.1031 5.26497 12.7009 5.66894 12.7009 6.33883V13.1578C12.7009 13.8277 13.1031 14.2317 13.709 14.2317C14.3149 14.2317 14.7171 13.8277 14.7171 13.1578V9.67803C14.9437 9.48882 15.323 9.32263 15.7074 9.32263C16.298 9.32263 16.6289 9.66524 16.6289 10.261V13.1578C16.6289 13.8277 17.0311 14.2317 17.637 14.2317C18.2429 14.2317 18.6451 13.8277 18.6451 13.1578Z" fill="current"/>
</svg>