<svg xmlns="http://www.w3.org/2000/svg" width="16" height="16" viewBox="0 0 16 16" fill="none">
  <path d="M0 8C0 10.1217 0.842854 12.1566 2.34315 13.6568C3.84344 15.1571 5.87827 16 8 16C10.1217 16 12.1566 15.1571 13.6569 13.6568C15.1571 12.1566 16 10.1217 16 8C16 5.87827 15.1571 3.84344 13.6569 2.34314C12.1566 0.842854 10.1217 0 8 0C5.87827 0 3.84344 0.842854 2.34315 2.34314C0.842854 3.84344 0 5.87827 0 8Z" fill="#FDE047"/>
  <path d="M8 0C6.41775 0 4.87103 0.469192 3.55544 1.34824C2.23985 2.22729 1.21447 3.47672 0.608967 4.93853C0.00346627 6.40034 -0.15496 8.00887 0.153721 9.56072C0.462403 11.1126 1.22433 12.538 2.34315 13.6569C3.46197 14.7757 4.88743 15.5376 6.43928 15.8463C7.99113 16.155 9.59966 15.9965 11.0615 15.391C12.5233 14.7855 13.7727 13.7602 14.6518 12.4446C15.5308 11.129 16 9.58225 16 8C16 5.87827 15.1571 3.84344 13.6569 2.34315C12.1566 0.842854 10.1217 0 8 0ZM8 14.8C6.5562 14.8 5.14482 14.3719 3.94434 13.5697C2.74386 12.7676 1.8082 11.6275 1.25568 10.2936C0.703163 8.95969 0.558599 7.4919 0.840271 6.07584C1.12194 4.65978 1.8172 3.35904 2.83812 2.33812C3.85905 1.3172 5.15978 0.621939 6.57584 0.340267C7.9919 0.0585953 9.45969 0.20316 10.7936 0.755679C12.1275 1.3082 13.2676 2.24386 14.0697 3.44434C14.8719 4.64481 15.3 6.05619 15.3 7.5C15.3 9.43608 14.5309 11.2929 13.1619 12.6619C11.7929 14.0309 9.93608 14.8 8 14.8Z" fill="#EAB308"/>
  <path d="M5.6001 1.6C5.6001 1.75913 5.85295 1.91174 6.30304 2.02426C6.75313 2.13679 7.36358 2.2 8.0001 2.2C8.63662 2.2 9.24707 2.13679 9.69715 2.02426C10.1472 1.91174 10.4001 1.75913 10.4001 1.6C10.4001 1.44087 10.1472 1.28826 9.69715 1.17574C9.24707 1.06321 8.63662 1 8.0001 1C7.36358 1 6.75313 1.06321 6.30304 1.17574C5.85295 1.28826 5.6001 1.44087 5.6001 1.6Z" fill="#FEF9C3"/>
  <path d="M6 12C6.59201 11.6044 7.28801 11.3933 8 11.3933C8.71199 11.3933 9.40799 11.6044 10 12" stroke="#45413C" stroke-width="0.8" stroke-linecap="round"/>
  <path d="M4.4001 8.0001C4.4001 8.07921 4.37664 8.15655 4.33269 8.22233C4.28873 8.28811 4.22626 8.33937 4.15317 8.36965C4.08008 8.39992 3.99965 8.40785 3.92206 8.39241C3.84447 8.37698 3.7732 8.33888 3.71726 8.28294C3.66131 8.227 3.62322 8.15573 3.60778 8.07813C3.59235 8.00054 3.60027 7.92011 3.63055 7.84702C3.66082 7.77393 3.71209 7.71146 3.77787 7.66751C3.84365 7.62356 3.92099 7.6001 4.0001 7.6001C4.10618 7.6001 4.20793 7.64224 4.28294 7.71725C4.35795 7.79227 4.4001 7.89401 4.4001 8.0001Z" fill="#45413C" stroke="#45413C" stroke-linecap="round" stroke-linejoin="round"/>
  <path d="M3.6001 6.264C4.06958 6.18833 4.52438 6.03988 4.9481 5.824C5.37343 5.61227 5.76231 5.33412 6.1001 5" stroke="#45413C" stroke-width="0.8" stroke-linecap="round" stroke-linejoin="round"/>
  <path d="M11.6001 8.0001C11.6001 8.07921 11.6236 8.15655 11.6675 8.22233C11.7115 8.28811 11.7739 8.33937 11.847 8.36965C11.9201 8.39992 12.0005 8.40785 12.0781 8.39241C12.1557 8.37698 12.227 8.33888 12.2829 8.28294C12.3389 8.227 12.377 8.15573 12.3924 8.07813C12.4078 8.00054 12.3999 7.92011 12.3696 7.84702C12.3394 7.77393 12.2881 7.71146 12.2223 7.66751C12.1565 7.62356 12.0792 7.6001 12.0001 7.6001C11.894 7.6001 11.7923 7.64224 11.7173 7.71725C11.6422 7.79227 11.6001 7.89401 11.6001 8.0001Z" fill="#45413C" stroke="#45413C" stroke-linecap="round" stroke-linejoin="round"/>
  <path d="M12.3999 6.264C11.9304 6.18833 11.4756 6.03988 11.0519 5.824C10.6266 5.61227 10.2377 5.33412 9.8999 5" stroke="#45413C" stroke-width="0.8" stroke-linecap="round" stroke-linejoin="round"/>
  <path d="M13.7996 10.3999C13.7996 10.9532 13.053 11.3999 12.133 11.3999C11.213 11.3999 10.4663 10.9532 10.4663 10.3999C10.4663 9.84657 11.213 9.3999 12.133 9.3999C13.053 9.3999 13.7996 9.84657 13.7996 10.3999Z" fill="#FFAA54"/>
  <path d="M2.2002 10.3999C2.2002 10.9532 2.94686 11.3999 3.86686 11.3999C4.78686 11.3999 5.53353 10.9532 5.53353 10.3999C5.53353 9.84657 4.78686 9.3999 3.86686 9.3999C2.94686 9.3999 2.2002 9.84657 2.2002 10.3999Z" fill="#FFAA54"/>
  <path d="M14.6663 13.0001C14.6663 13.5305 14.4472 14.0392 14.0571 14.4143C13.6671 14.7894 13.138 15.0001 12.5863 15.0001C12.0347 15.0001 11.5056 14.7894 11.1156 14.4143C10.7255 14.0392 10.5063 13.5305 10.5063 13.0001C10.5063 11.8961 12.5863 8.6001 12.5863 8.6001C12.5863 8.6001 14.6663 11.8961 14.6663 13.0001Z" fill="#36BFFA"/>
  <path d="M12.5863 13.9999C12.1314 13.9977 11.6898 13.8522 11.3292 13.5856C10.9685 13.319 10.7087 12.9461 10.5895 12.5239C10.5399 12.6783 10.5119 12.8384 10.5063 12.9999C10.5063 13.5304 10.7255 14.0391 11.1156 14.4141C11.5056 14.7892 12.0347 14.9999 12.5863 14.9999C13.138 14.9999 13.6671 14.7892 14.0571 14.4141C14.4472 14.0391 14.6663 13.5304 14.6663 12.9999C14.6608 12.8384 14.6328 12.6783 14.5831 12.5239C14.464 12.9461 14.2042 13.319 13.8435 13.5856C13.4828 13.8522 13.0412 13.9977 12.5863 13.9999Z" fill="#0BA5EC"/>
</svg>