<svg xmlns="http://www.w3.org/2000/svg" width="20" height="20" viewBox="0 0 20 20" fill="none">

<path d="M8.99263 2.62622C9.08555 2.43802 9.22926 2.27957 9.40753 2.16878C9.58579 2.05798 9.79149 1.99927 10.0014 1.99927C10.2113 1.99927 10.417 2.05798 10.5952 2.16878C10.7735 2.27957 10.9172 2.43802 11.0101 2.62622L12.9114 6.47872L17.1626 7.09747C17.3705 7.12745 17.5658 7.21499 17.7264 7.35019C17.8871 7.4854 18.0067 7.66287 18.0717 7.86252C18.1367 8.06217 18.1446 8.27605 18.0944 8.47993C18.0442 8.68382 17.9379 8.86959 17.7876 9.01622L14.7101 12.015L15.4364 16.2487C15.472 16.4557 15.4489 16.6684 15.3698 16.863C15.2908 17.0575 15.1588 17.226 14.989 17.3494C14.8191 17.4729 14.6181 17.5463 14.4086 17.5614C14.1992 17.5765 13.9897 17.5327 13.8039 17.435L10.0014 15.435L6.19888 17.435C6.01305 17.5327 5.80356 17.5765 5.59412 17.5614C5.38469 17.5463 5.18366 17.4729 5.01379 17.3494C4.84393 17.226 4.71199 17.0575 4.63292 16.863C4.55385 16.6684 4.5308 16.4557 4.56638 16.2487L5.29138 12.015L2.21638 9.01497C2.06647 8.86838 1.96051 8.6828 1.91045 8.47919C1.8604 8.27557 1.86825 8.06202 1.93311 7.86263C1.99797 7.66323 2.11726 7.48593 2.27753 7.35073C2.4378 7.21554 2.63266 7.12782 2.84013 7.09747L7.09013 6.47872L8.99263 2.62622Z" fill="current"/>

</svg>