<svg xmlns="http://www.w3.org/2000/svg" width="16" height="16" viewBox="0 0 16 16" fill="none">
  <path d="M0 8C0 10.1217 0.842854 12.1566 2.34314 13.6569C3.84344 15.1571 5.87827 16 8 16C10.1217 16 12.1566 15.1571 13.6568 13.6569C15.1571 12.1566 16 10.1217 16 8C16 5.87827 15.1571 3.84344 13.6568 2.34315C12.1566 0.842854 10.1217 0 8 0C5.87827 0 3.84344 0.842854 2.34314 2.34315C0.842854 3.84344 0 5.87827 0 8Z" fill="#FDE047"/>
  <path d="M8 0C6.41775 0 4.87103 0.469192 3.55544 1.34824C2.23985 2.22729 1.21447 3.47672 0.608967 4.93853C0.00346627 6.40034 -0.15496 8.00887 0.153721 9.56072C0.462403 11.1126 1.22433 12.538 2.34315 13.6569C3.46197 14.7757 4.88743 15.5376 6.43928 15.8463C7.99113 16.155 9.59966 15.9965 11.0615 15.391C12.5233 14.7855 13.7727 13.7602 14.6518 12.4446C15.5308 11.129 16 9.58225 16 8C16 5.87827 15.1571 3.84344 13.6569 2.34315C12.1566 0.842854 10.1217 0 8 0ZM8 14.8C6.5562 14.8 5.14482 14.3719 3.94434 13.5697C2.74386 12.7676 1.8082 11.6275 1.25568 10.2936C0.703163 8.95969 0.558599 7.4919 0.840271 6.07584C1.12194 4.65978 1.8172 3.35904 2.83812 2.33812C3.85905 1.3172 5.15978 0.621939 6.57584 0.340267C7.9919 0.0585953 9.45969 0.20316 10.7936 0.755679C12.1275 1.3082 13.2676 2.24386 14.0697 3.44434C14.8719 4.64481 15.3 6.05619 15.3 7.5C15.3 9.43608 14.5309 11.2929 13.1619 12.6619C11.7929 14.0309 9.93608 14.8 8 14.8Z" fill="#EAB308"/>
  <path d="M5.6001 1.6C5.6001 1.75913 5.85295 1.91174 6.30304 2.02426C6.75313 2.13679 7.36358 2.2 8.0001 2.2C8.63662 2.2 9.24707 2.13679 9.69715 2.02426C10.1472 1.91174 10.4001 1.75913 10.4001 1.6C10.4001 1.44087 10.1472 1.28826 9.69715 1.17574C9.24707 1.06321 8.63662 1 8.0001 1C7.36358 1 6.75313 1.06321 6.30304 1.17574C5.85295 1.28826 5.6001 1.44087 5.6001 1.6Z" fill="#FEF9C3"/>
  <path d="M13.9998 9.66675C13.9998 10.2201 13.2532 10.6667 12.3332 10.6667C11.4132 10.6667 10.6665 10.2201 10.6665 9.66675C10.6665 9.11341 11.4132 8.66675 12.3332 8.66675C13.2532 8.66675 13.9998 9.11341 13.9998 9.66675Z" fill="#FFAA54"/>
  <path d="M2 9.66675C2 10.2201 2.74667 10.6667 3.66667 10.6667C4.58667 10.6667 5.33333 10.2201 5.33333 9.66675C5.33333 9.11341 4.58667 8.66675 3.66667 8.66675C2.74667 8.66675 2 9.11341 2 9.66675Z" fill="#FFAA54"/>
  <path d="M5 11C5 11.7956 5.31607 12.5587 5.87868 13.1213C6.44129 13.6839 7.20435 14 8 14C8.79565 14 9.55871 13.6839 10.1213 13.1213C10.6839 12.5587 11 11.7956 11 11C11 10.2043 10.6839 9.44129 10.1213 8.87868C9.55871 8.31607 8.79565 8 8 8C7.20435 8 6.44129 8.31607 5.87868 8.87868C5.31607 9.44129 5 10.2043 5 11Z" fill="#FEA3B4" stroke="#45413C" stroke-width="0.8" stroke-linecap="round" stroke-linejoin="round"/>
  <path d="M1.99268 5.8999C1.99268 6.43033 2.20339 6.93904 2.57846 7.31411C2.95353 7.68919 3.46224 7.8999 3.99268 7.8999C4.52311 7.8999 5.03182 7.68919 5.40689 7.31411C5.78196 6.93904 5.99267 6.43033 5.99267 5.8999C5.99267 5.36947 5.78196 4.86076 5.40689 4.48569C5.03182 4.11062 4.52311 3.8999 3.99268 3.8999C3.46224 3.8999 2.95353 4.11062 2.57846 4.48569C2.20339 4.86076 1.99268 5.36947 1.99268 5.8999Z" fill="white" stroke="#45413C" stroke-width="0.8" stroke-linecap="round" stroke-linejoin="round"/>
  <path d="M3.6001 5.9C3.6001 5.97911 3.62356 6.05645 3.66751 6.12223C3.71146 6.18801 3.77393 6.23928 3.84702 6.26955C3.92011 6.29983 4.00054 6.30775 4.07813 6.29231C4.15573 6.27688 4.227 6.23878 4.28294 6.18284C4.33888 6.1269 4.37698 6.05563 4.39241 5.97804C4.40785 5.90044 4.39992 5.82002 4.36965 5.74693C4.33937 5.67384 4.28811 5.61136 4.22233 5.56741C4.15655 5.52346 4.07921 5.5 4.0001 5.5C3.89401 5.5 3.79227 5.54214 3.71725 5.61716C3.64224 5.69217 3.6001 5.79391 3.6001 5.9Z" fill="#45413C" stroke="#45413C" stroke-linecap="round" stroke-linejoin="round"/>
  <path d="M10.0073 5.8999C10.0073 6.43033 10.218 6.93904 10.5931 7.31411C10.9682 7.68919 11.4769 7.8999 12.0073 7.8999C12.5378 7.8999 13.0465 7.68919 13.4215 7.31411C13.7966 6.93904 14.0073 6.43033 14.0073 5.8999C14.0073 5.36947 13.7966 4.86076 13.4215 4.48569C13.0465 4.11062 12.5378 3.8999 12.0073 3.8999C11.4769 3.8999 10.9682 4.11062 10.5931 4.48569C10.218 4.86076 10.0073 5.36947 10.0073 5.8999Z" fill="white" stroke="#45413C" stroke-width="0.8" stroke-linecap="round" stroke-linejoin="round"/>
  <path d="M12.4001 5.9C12.4001 5.97911 12.3766 6.05645 12.3327 6.12223C12.2887 6.18801 12.2263 6.23928 12.1532 6.26955C12.0801 6.29983 11.9997 6.30775 11.9221 6.29231C11.8445 6.27688 11.7732 6.23878 11.7173 6.18284C11.6613 6.1269 11.6232 6.05563 11.6078 5.97804C11.5923 5.90044 11.6003 5.82002 11.6305 5.74693C11.6608 5.67384 11.7121 5.61136 11.7779 5.56741C11.8436 5.52346 11.921 5.5 12.0001 5.5C12.1062 5.5 12.2079 5.54214 12.2829 5.61716C12.358 5.69217 12.4001 5.79391 12.4001 5.9Z" fill="#45413C" stroke="#45413C" stroke-linecap="round" stroke-linejoin="round"/>
  <path d="M5.99952 3.27607C5.38352 2.70007 3.66752 1.90007 2.70752 3.25207" stroke="#45413C" stroke-width="0.625" stroke-linecap="round" stroke-linejoin="round"/>
  <path d="M10 3.27607C10.616 2.70007 12.332 1.90007 13.292 3.25207" stroke="#45413C" stroke-width="0.625" stroke-linecap="round" stroke-linejoin="round"/>
</svg>