<svg xmlns="http://www.w3.org/2000/svg" width="22" height="22" viewBox="0 0 22 22" fill="none">
  <g clip-path="url(#clip0_2300_6912)">
    <path d="M7.33325 10.9999C7.33325 11.9724 7.71956 12.905 8.40719 13.5926C9.09483 14.2803 10.0275 14.6666 10.9999 14.6666C11.9724 14.6666 12.905 14.2803 13.5926 13.5926C14.2803 12.905 14.6666 11.9724 14.6666 10.9999C14.6666 10.0275 14.2803 9.09483 13.5926 8.40719C12.905 7.71956 11.9724 7.33325 10.9999 7.33325C10.0275 7.33325 9.09483 7.71956 8.40719 8.40719C7.71956 9.09483 7.33325 10.0275 7.33325 10.9999Z" stroke="current" stroke-width="1.33" stroke-linecap="round" stroke-linejoin="round"/>
    <path d="M14.6667 11.0001V12.3751C14.6667 12.9829 14.9081 13.5658 15.3379 13.9956C15.7676 14.4253 16.3505 14.6668 16.9583 14.6668C17.5661 14.6668 18.149 14.4253 18.5788 13.9956C19.0086 13.5658 19.25 12.9829 19.25 12.3751V11.0001C19.2523 9.22736 18.6835 7.50104 17.6279 6.07686C16.5722 4.65269 15.086 3.60641 13.3892 3.09303C11.6924 2.57965 9.8754 2.62647 8.20732 3.22655C6.53923 3.82664 5.10881 4.94807 4.12794 6.42472C3.14707 7.90138 2.66793 9.6547 2.76151 11.425C2.85508 13.1952 3.51638 14.8883 4.64746 16.2533C5.77853 17.6183 7.31921 18.5827 9.04126 19.0036C10.7633 19.4245 12.5751 19.2795 14.2083 18.5901" stroke="current" stroke-width="1.33" stroke-linecap="round" stroke-linejoin="round"/>
  </g>
  <defs>
    <clipPath id="clip0_2300_6912">
      <rect width="22" height="22" fill="white"/>
    </clipPath>
  </defs>
</svg>