<svg xmlns="http://www.w3.org/2000/svg" width="100%" height="100%" viewBox="0 0 20 20" fill="current">
  <path fill-rule="evenodd" clip-rule="evenodd" d="M1.95413 1.87085C2.07852 1.76279 2.23215 1.69404 2.3956 1.67327C2.55906 1.65251 2.725 1.68066 2.87246 1.75418L17.8725 9.25418C18.0111 9.3233 18.1278 9.4297 18.2093 9.56145C18.2909 9.6932 18.3341 9.84507 18.3341 10C18.3341 10.155 18.2909 10.3068 18.2093 10.4386C18.1278 10.5703 18.0111 10.6767 17.8725 10.7458L2.87246 18.2458C2.72501 18.3196 2.55899 18.348 2.39541 18.3274C2.23183 18.3068 2.07804 18.2381 1.9535 18.1301C1.82895 18.0221 1.73926 17.8795 1.69576 17.7205C1.65226 17.5614 1.65691 17.3931 1.70913 17.2367L3.84413 10.8333H8.33329C8.55431 10.8333 8.76627 10.7456 8.92255 10.5893C9.07883 10.433 9.16663 10.221 9.16663 10C9.16663 9.779 9.07883 9.56704 8.92255 9.41076C8.76627 9.25448 8.55431 9.16668 8.33329 9.16668H3.84413L1.70829 2.76335C1.65634 2.60702 1.65189 2.43881 1.6955 2.27996C1.73911 2.12111 1.82881 1.97874 1.95329 1.87085H1.95413Z" fill="current"/>
</svg>