<svg width="40" height="40" viewBox="0 0 40 40" fill="none" xmlns="http://www.w3.org/2000/svg">
<g clip-path="url(#clip0_834_2886)">
<path d="M23.75 5.5H8.75V34.25H31.25V13L23.75 5.5Z" fill="white"/>
<path d="M28.3333 35H11.6666C10.7826 35 9.93474 34.6488 9.30962 34.0237C8.6845 33.3986 8.33331 32.5507 8.33331 31.6667V8.33333C8.33331 7.44928 8.6845 6.60143 9.30962 5.97631C9.93474 5.35119 10.7826 5 11.6666 5H23.3333L31.6666 13.3333V31.6667C31.6666 32.5507 31.3155 33.3986 30.6903 34.0237C30.0652 34.6488 29.2174 35 28.3333 35Z" stroke="#CDD3DD" stroke-width="3" stroke-linecap="round" stroke-linejoin="round"/>
</g>
<rect x="1" y="26" width="26" height="14" rx="3" fill="#0086C9"/>
<rect x="1.5" y="26.5" width="25" height="13" rx="2.5" stroke="#0F1B2A" stroke-opacity="0.05"/>
<path d="M6.82715 36.5H5.29395L5.30371 35.4453H6.82715C7.24056 35.4453 7.58724 35.3542 7.86719 35.1719C8.14714 34.9863 8.35872 34.721 8.50195 34.376C8.64518 34.0277 8.7168 33.611 8.7168 33.126V32.7598C8.7168 32.3854 8.67611 32.055 8.59473 31.7686C8.51335 31.4821 8.3929 31.2412 8.2334 31.0459C8.07715 30.8506 7.88346 30.7025 7.65234 30.6016C7.42122 30.5007 7.15592 30.4502 6.85645 30.4502H5.26465V29.3906H6.85645C7.33171 29.3906 7.76465 29.4704 8.15527 29.6299C8.54915 29.7894 8.88932 30.0189 9.17578 30.3184C9.46549 30.6146 9.68685 30.9694 9.83984 31.3828C9.99609 31.7962 10.0742 32.2585 10.0742 32.7695V33.126C10.0742 33.6338 9.99609 34.096 9.83984 34.5127C9.68685 34.9261 9.46549 35.2809 9.17578 35.5771C8.88932 35.8734 8.54753 36.1012 8.15039 36.2607C7.75326 36.4202 7.31217 36.5 6.82715 36.5ZM6.0459 29.3906V36.5H4.70312V29.3906H6.0459ZM16.9736 32.7646V33.1309C16.9736 33.668 16.902 34.1514 16.7588 34.5811C16.6156 35.0075 16.4121 35.3704 16.1484 35.6699C15.8848 35.9694 15.5706 36.1989 15.2061 36.3584C14.8415 36.5179 14.4362 36.5977 13.9902 36.5977C13.5508 36.5977 13.1471 36.5179 12.7793 36.3584C12.4147 36.1989 12.099 35.9694 11.832 35.6699C11.5651 35.3704 11.3584 35.0075 11.2119 34.5811C11.0654 34.1514 10.9922 33.668 10.9922 33.1309V32.7646C10.9922 32.2243 11.0654 31.7409 11.2119 31.3145C11.3584 30.888 11.5635 30.5251 11.8271 30.2256C12.0908 29.9229 12.4049 29.6917 12.7695 29.5322C13.1374 29.3727 13.541 29.293 13.9805 29.293C14.4264 29.293 14.8317 29.3727 15.1963 29.5322C15.5609 29.6917 15.875 29.9229 16.1387 30.2256C16.4056 30.5251 16.6107 30.888 16.7539 31.3145C16.9004 31.7409 16.9736 32.2243 16.9736 32.7646ZM15.6162 33.1309V32.7549C15.6162 32.3675 15.5804 32.0273 15.5088 31.7344C15.4372 31.4382 15.3314 31.1891 15.1914 30.9873C15.0514 30.7855 14.8789 30.6341 14.6738 30.5332C14.4688 30.429 14.2376 30.377 13.9805 30.377C13.7201 30.377 13.4889 30.429 13.2871 30.5332C13.0885 30.6341 12.9193 30.7855 12.7793 30.9873C12.6393 31.1891 12.5319 31.4382 12.457 31.7344C12.3854 32.0273 12.3496 32.3675 12.3496 32.7549V33.1309C12.3496 33.515 12.3854 33.8551 12.457 34.1514C12.5319 34.4476 12.6393 34.6982 12.7793 34.9033C12.9225 35.1051 13.0951 35.2581 13.2969 35.3623C13.4987 35.4665 13.7298 35.5186 13.9902 35.5186C14.2507 35.5186 14.4818 35.4665 14.6836 35.3623C14.8854 35.2581 15.0547 35.1051 15.1914 34.9033C15.3314 34.6982 15.4372 34.4476 15.5088 34.1514C15.5804 33.8551 15.6162 33.515 15.6162 33.1309ZM22.2715 34.1611H23.6143C23.5785 34.6364 23.4466 35.0579 23.2188 35.4258C22.9909 35.7904 22.6735 36.0768 22.2666 36.2852C21.8597 36.4935 21.3665 36.5977 20.7871 36.5977C20.3411 36.5977 19.9391 36.5195 19.5811 36.3633C19.2262 36.2038 18.9219 35.9775 18.668 35.6846C18.4173 35.3883 18.2253 35.0335 18.0918 34.6201C17.9583 34.2035 17.8916 33.7363 17.8916 33.2188V32.6768C17.8916 32.1592 17.96 31.6921 18.0967 31.2754C18.2334 30.8587 18.4287 30.5039 18.6826 30.2109C18.9398 29.9147 19.2474 29.6868 19.6055 29.5273C19.9668 29.3678 20.3704 29.2881 20.8164 29.2881C21.3958 29.2881 21.8857 29.3955 22.2861 29.6104C22.6865 29.8219 22.9974 30.1133 23.2188 30.4844C23.4401 30.8555 23.5736 31.2819 23.6191 31.7637H22.2764C22.2503 31.4642 22.1852 31.2103 22.0811 31.002C21.9801 30.7936 21.8271 30.6357 21.6221 30.5283C21.4202 30.4176 21.1517 30.3623 20.8164 30.3623C20.556 30.3623 20.3265 30.4111 20.1279 30.5088C19.9326 30.6064 19.7699 30.7529 19.6396 30.9482C19.5094 31.1403 19.4118 31.3812 19.3467 31.6709C19.2816 31.9574 19.249 32.2894 19.249 32.667V33.2188C19.249 33.5801 19.2783 33.904 19.3369 34.1904C19.3955 34.4769 19.4867 34.7194 19.6104 34.918C19.734 35.1165 19.8936 35.2679 20.0889 35.3721C20.2842 35.4762 20.5169 35.5283 20.7871 35.5283C21.1159 35.5283 21.3828 35.4762 21.5879 35.3721C21.7962 35.2679 21.9541 35.1149 22.0615 34.9131C22.1722 34.7113 22.2422 34.4606 22.2715 34.1611Z" fill="white"/>
<defs>
<clipPath id="clip0_834_2886">
<rect width="40" height="40" fill="white"/>
</clipPath>
</defs>
</svg>
