<svg width="40" height="40" viewBox="0 0 40 40" fill="none" xmlns="http://www.w3.org/2000/svg">
<g clip-path="url(#clip0_834_2900)">
<path d="M23.75 5.5H8.75V34.25H31.25V13L23.75 5.5Z" fill="white"/>
<path d="M28.3333 35H11.6666C10.7826 35 9.93474 34.6488 9.30962 34.0237C8.6845 33.3986 8.33331 32.5507 8.33331 31.6667V8.33333C8.33331 7.44928 8.6845 6.60143 9.30962 5.97631C9.93474 5.35119 10.7826 5 11.6666 5H23.3333L31.6666 13.3333V31.6667C31.6666 32.5507 31.3155 33.3986 30.6903 34.0237C30.0652 34.6488 29.2174 35 28.3333 35Z" stroke="#CDD3DD" stroke-width="3" stroke-linecap="round" stroke-linejoin="round"/>
</g>
<rect x="1" y="26" width="26" height="14" rx="3" fill="#414D5C"/>
<rect x="1.5" y="26.5" width="25" height="13" rx="2.5" stroke="#0F1B2A" stroke-opacity="0.05"/>
<path d="M10.2402 35.4453V36.5H6.46094V35.4453H10.2402ZM6.87109 29.3906V36.5H5.52832V29.3906H6.87109ZM9.74707 32.3252V33.3555H6.46094V32.3252H9.74707ZM10.2256 29.3906V30.4502H6.46094V29.3906H10.2256ZM14.3223 29.3906V36.5H12.9844V29.3906H14.3223ZM16.5293 29.3906V30.4502H10.8018V29.3906H16.5293ZM21.4463 34.1611H22.7891C22.7533 34.6364 22.6214 35.0579 22.3936 35.4258C22.1657 35.7904 21.8483 36.0768 21.4414 36.2852C21.0345 36.4935 20.5413 36.5977 19.9619 36.5977C19.516 36.5977 19.1139 36.5195 18.7559 36.3633C18.401 36.2038 18.0967 35.9775 17.8428 35.6846C17.5921 35.3883 17.4001 35.0335 17.2666 34.6201C17.1331 34.2035 17.0664 33.7363 17.0664 33.2188V32.6768C17.0664 32.1592 17.1348 31.6921 17.2715 31.2754C17.4082 30.8587 17.6035 30.5039 17.8574 30.2109C18.1146 29.9147 18.4222 29.6868 18.7803 29.5273C19.1416 29.3678 19.5452 29.2881 19.9912 29.2881C20.5706 29.2881 21.0605 29.3955 21.4609 29.6104C21.8613 29.8219 22.1722 30.1133 22.3936 30.4844C22.6149 30.8555 22.7484 31.2819 22.7939 31.7637H21.4512C21.4251 31.4642 21.36 31.2103 21.2559 31.002C21.1549 30.7936 21.002 30.6357 20.7969 30.5283C20.5951 30.4176 20.3265 30.3623 19.9912 30.3623C19.7308 30.3623 19.5013 30.4111 19.3027 30.5088C19.1074 30.6064 18.9447 30.7529 18.8145 30.9482C18.6842 31.1403 18.5866 31.3812 18.5215 31.6709C18.4564 31.9574 18.4238 32.2894 18.4238 32.667V33.2188C18.4238 33.5801 18.4531 33.904 18.5117 34.1904C18.5703 34.4769 18.6615 34.7194 18.7852 34.918C18.9089 35.1165 19.0684 35.2679 19.2637 35.3721C19.459 35.4762 19.6917 35.5283 19.9619 35.5283C20.2907 35.5283 20.5576 35.4762 20.7627 35.3721C20.971 35.2679 21.1289 35.1149 21.2363 34.9131C21.347 34.7113 21.417 34.4606 21.4463 34.1611Z" fill="white"/>
<defs>
<clipPath id="clip0_834_2900">
<rect width="40" height="40" fill="white"/>
</clipPath>
</defs>
</svg>
 