<svg width="40" height="40" viewBox="0 0 40 40" fill="none" xmlns="http://www.w3.org/2000/svg">
<rect width="40" height="40" rx="8" fill="#414D5C"/>
<rect x="0.5" y="0.5" width="39" height="39" rx="7.5" stroke="#0F1B2A" stroke-opacity="0.05"/>
<path d="M7.64062 25V15.1016H14.0801V16.5918H9.41797V19.2988H13.7383V20.7891H9.41797V23.4961H14.1074V25H7.64062ZM15.3516 16.5918V15.1016H23.2402V16.5918H20.1914V25H18.4141V16.5918H15.3516ZM30.8691 18.4375C30.6572 17.248 29.707 16.5645 28.5039 16.5645C26.8838 16.5645 25.7354 17.8086 25.7422 20.0508C25.7354 22.3271 26.8906 23.5371 28.5039 23.5371C29.6797 23.5371 30.6299 22.8809 30.8691 21.7188H32.6602C32.3867 23.6191 30.8213 25.1367 28.4766 25.1367C25.8652 25.1367 23.9443 23.2432 23.9512 20.0508C23.9443 16.8516 25.8857 14.9648 28.4766 14.9648C30.6641 14.9648 32.3525 16.2363 32.6602 18.4375H30.8691Z" fill="white"/>
</svg>
