<svg width="40" height="40" viewBox="0 0 40 40" fill="none" xmlns="http://www.w3.org/2000/svg">
<g clip-path="url(#clip0_834_2883)">
<path d="M23.75 5.5H8.75V34.25H31.25V13L23.75 5.5Z" fill="white"/>
<path d="M28.3333 35H11.6666C10.7826 35 9.93474 34.6488 9.30962 34.0237C8.6845 33.3986 8.33331 32.5507 8.33331 31.6667V8.33333C8.33331 7.44928 8.6845 6.60143 9.30962 5.97631C9.93474 5.35119 10.7826 5 11.6666 5H23.3333L31.6666 13.3333V31.6667C31.6666 32.5507 31.3155 33.3986 30.6903 34.0237C30.0652 34.6488 29.2174 35 28.3333 35Z" stroke="#CDD3DD" stroke-width="3" stroke-linecap="round" stroke-linejoin="round"/>
</g>
<rect x="1" y="26" width="26" height="14" rx="3" fill="#32D583"/>
<rect x="1.5" y="26.5" width="25" height="13" rx="2.5" stroke="#0F1B2A" stroke-opacity="0.05"/>
<path d="M6.88574 29.3906V36.5H5.54297V29.3906H6.88574ZM8.92188 29.3906H10.084L12.0273 34.7422L13.9658 29.3906H15.1328L12.4912 36.5H11.5586L8.92188 29.3906ZM8.33594 29.3906H9.47363L9.67871 34.3076V36.5H8.33594V29.3906ZM14.5762 29.3906H15.7188V36.5H14.376V34.3076L14.5762 29.3906ZM22.6328 32.8232V35.5918C22.5286 35.7253 22.3643 35.8701 22.1396 36.0264C21.9183 36.1826 21.6286 36.3177 21.2705 36.4316C20.9124 36.5423 20.473 36.5977 19.9521 36.5977C19.4997 36.5977 19.0863 36.5228 18.7119 36.373C18.3376 36.2201 18.0153 35.9971 17.7451 35.7041C17.4749 35.4111 17.2666 35.0531 17.1201 34.6299C16.9736 34.2067 16.9004 33.7233 16.9004 33.1797V32.7109C16.9004 32.1673 16.9688 31.6839 17.1055 31.2607C17.2454 30.8376 17.444 30.4795 17.7012 30.1865C17.9616 29.8936 18.2725 29.6706 18.6338 29.5176C18.9984 29.3646 19.4053 29.2881 19.8545 29.2881C20.4567 29.2881 20.9515 29.3874 21.3389 29.5859C21.7295 29.7845 22.029 30.0579 22.2373 30.4062C22.4456 30.7513 22.5758 31.1484 22.6279 31.5977H21.3193C21.2835 31.3503 21.2119 31.1338 21.1045 30.9482C20.9971 30.7594 20.8441 30.613 20.6455 30.5088C20.4502 30.4014 20.1963 30.3477 19.8838 30.3477C19.6201 30.3477 19.3874 30.3997 19.1855 30.5039C18.9837 30.6081 18.8145 30.7594 18.6777 30.958C18.541 31.1566 18.4368 31.4023 18.3652 31.6953C18.2969 31.9883 18.2627 32.3236 18.2627 32.7012V33.1797C18.2627 33.5605 18.3018 33.8991 18.3799 34.1953C18.458 34.4883 18.5703 34.7357 18.7168 34.9375C18.8665 35.1361 19.0505 35.2874 19.2686 35.3916C19.4899 35.4925 19.7406 35.543 20.0205 35.543C20.2744 35.543 20.4844 35.5218 20.6504 35.4795C20.8197 35.4339 20.9548 35.3802 21.0557 35.3184C21.1566 35.2565 21.2347 35.1963 21.29 35.1377V33.8047H19.8789V32.8232H22.6328Z" fill="white"/>
<defs>
<clipPath id="clip0_834_2883">
<rect width="40" height="40" fill="white"/>
</clipPath>
</defs>
</svg>
