<svg width="40" height="40" viewBox="0 0 40 40" fill="none" xmlns="http://www.w3.org/2000/svg">
<rect width="40" height="40" rx="8" fill="#E4E8EE"/>
<rect x="0.5" y="0.5" width="39" height="39" rx="7.5" stroke="#0F1B2A" stroke-opacity="0.05"/>
<path fill-rule="evenodd" clip-rule="evenodd" d="M15.268 12.6579C18.4171 12.3842 21.5839 12.3842 24.733 12.6579L26.243 12.7899C26.945 12.8511 27.606 13.1467 28.1196 13.6292C28.6331 14.1118 28.9693 14.7531 29.074 15.4499C29.5275 18.4663 29.5275 21.5336 29.074 24.5499C29.034 24.8139 28.962 25.0669 28.862 25.3039C28.796 25.4609 28.592 25.4849 28.476 25.3589L24.055 20.4949C23.9572 20.3874 23.8303 20.3106 23.6897 20.2739C23.5491 20.2371 23.4009 20.242 23.263 20.2879L20.732 21.1319L17.061 17.0019C16.9931 16.9255 16.9103 16.8638 16.8177 16.8206C16.7251 16.7774 16.6246 16.7535 16.5224 16.7505C16.4202 16.7475 16.3185 16.7654 16.2235 16.8032C16.1286 16.8409 16.0423 16.8977 15.97 16.9699L11.056 21.8839C11.0226 21.9183 10.98 21.9421 10.9332 21.9525C10.8865 21.9629 10.8378 21.9595 10.793 21.9426C10.7482 21.9257 10.7093 21.8961 10.681 21.8575C10.6528 21.8188 10.6365 21.7728 10.634 21.7249C10.5158 19.6285 10.6136 17.5254 10.926 15.4489C11.0307 14.7521 11.3669 14.1108 11.8804 13.6282C12.394 13.1457 13.055 12.8501 13.757 12.7889L15.268 12.6579ZM22 16.9999C22 16.6021 22.158 16.2206 22.4394 15.9393C22.7207 15.658 23.1022 15.4999 23.5 15.4999C23.8978 15.4999 24.2794 15.658 24.5607 15.9393C24.842 16.2206 25 16.6021 25 16.9999C25 17.3978 24.842 17.7793 24.5607 18.0606C24.2794 18.3419 23.8978 18.4999 23.5 18.4999C23.1022 18.4999 22.7207 18.3419 22.4394 18.0606C22.158 17.7793 22 17.3978 22 16.9999Z" fill="#A8B1BD"/>
<path d="M10.961 24.1C10.9339 24.1273 10.9135 24.1604 10.9014 24.1968C10.8892 24.2332 10.8857 24.272 10.891 24.31L10.926 24.55C11.0307 25.2469 11.3669 25.8882 11.8804 26.3707C12.394 26.8533 13.055 27.1489 13.757 27.21L15.267 27.341C18.417 27.615 21.583 27.615 24.733 27.341L26.243 27.21C26.6571 27.1742 27.06 27.0562 27.428 26.863C27.565 26.792 27.588 26.611 27.484 26.497L23.384 21.987C23.3515 21.9508 23.309 21.9249 23.262 21.9125C23.2149 21.9 23.1652 21.9016 23.119 21.917L20.737 22.711C20.5977 22.7575 20.4479 22.7621 20.306 22.7243C20.1642 22.6864 20.0366 22.6077 19.939 22.498L16.644 18.791C16.6213 18.7655 16.5937 18.745 16.5627 18.7306C16.5318 18.7162 16.4983 18.7083 16.4642 18.7074C16.4301 18.7064 16.3961 18.7125 16.3645 18.7251C16.3328 18.7378 16.3041 18.7568 16.28 18.781L10.961 24.1Z" fill="#A8B1BD"/>
</svg>
