<svg width="40" height="40" viewBox="0 0 40 40" fill="none" xmlns="http://www.w3.org/2000/svg">
<rect width="40" height="40" rx="8" fill="#FEC84B"/>
<rect x="0.5" y="0.5" width="39" height="39" rx="7.5" stroke="#0F1B2A" stroke-opacity="0.05"/>
<g clip-path="url(#clip0_1259_12674)">
<path d="M17 23L23 17" stroke="white" stroke-width="1.5" stroke-linecap="round" stroke-linejoin="round"/>
<path d="M19 13.9999L19.463 13.4639C20.4008 12.5263 21.6727 11.9995 22.9989 11.9996C24.325 11.9997 25.5968 12.5266 26.5345 13.4644C27.4722 14.4022 27.9989 15.6741 27.9988 17.0003C27.9987 18.3265 27.4718 19.5983 26.534 20.5359L26 20.9999" stroke="white" stroke-width="1.5" stroke-linecap="round" stroke-linejoin="round"/>
<path d="M21 26L20.603 26.534C19.6543 27.4722 18.3738 27.9984 17.0395 27.9984C15.7052 27.9984 14.4248 27.4722 13.476 26.534C13.0084 26.0716 12.6371 25.521 12.3837 24.9141C12.1303 24.3073 11.9999 23.6561 11.9999 22.9985C11.9999 22.3408 12.1303 21.6897 12.3837 21.0829C12.6371 20.476 13.0084 19.9254 13.476 19.463L14 19" stroke="white" stroke-width="1.5" stroke-linecap="round" stroke-linejoin="round"/>
</g>
<defs>
<clipPath id="clip0_1259_12674">
<rect width="24" height="24" fill="white" transform="translate(8 8)"/>
</clipPath>
</defs>
</svg>
