<svg width="40" height="40" viewBox="0 0 40 40" fill="none" xmlns="http://www.w3.org/2000/svg">
<g clip-path="url(#clip0_834_2889)">
<path d="M23.75 5.5H8.75V34.25H31.25V13L23.75 5.5Z" fill="white"/>
<path d="M28.3333 35H11.6666C10.7826 35 9.93474 34.6488 9.30962 34.0237C8.6845 33.3986 8.33331 32.5507 8.33331 31.6667V8.33333C8.33331 7.44928 8.6845 6.60143 9.30962 5.97631C9.93474 5.35119 10.7826 5 11.6666 5H23.3333L31.6666 13.3333V31.6667C31.6666 32.5507 31.3155 33.3986 30.6903 34.0237C30.0652 34.6488 29.2174 35 28.3333 35Z" stroke="#CDD3DD" stroke-width="3" stroke-linecap="round" stroke-linejoin="round"/>
</g>
<rect x="1" y="26" width="26" height="14" rx="3" fill="#E31B53"/>
<rect x="1.5" y="26.5" width="25" height="13" rx="2.5" stroke="#0F1B2A" stroke-opacity="0.05"/>
<path d="M8.19922 33.9072H6.36816V32.8525H8.19922C8.4987 32.8525 8.74121 32.8037 8.92676 32.7061C9.11556 32.6051 9.25391 32.4684 9.3418 32.2959C9.42969 32.1201 9.47363 31.9199 9.47363 31.6953C9.47363 31.4772 9.42969 31.2738 9.3418 31.085C9.25391 30.8962 9.11556 30.7432 8.92676 30.626C8.74121 30.5088 8.4987 30.4502 8.19922 30.4502H6.80762V36.5H5.46484V29.3906H8.19922C8.7526 29.3906 9.22461 29.4899 9.61523 29.6885C10.0091 29.8838 10.3086 30.1556 10.5137 30.5039C10.722 30.849 10.8262 31.2428 10.8262 31.6855C10.8262 32.1445 10.722 32.54 10.5137 32.8721C10.3086 33.2041 10.0091 33.4596 9.61523 33.6387C9.22461 33.8177 8.7526 33.9072 8.19922 33.9072ZM14.0049 36.5H12.4717L12.4814 35.4453H14.0049C14.4183 35.4453 14.765 35.3542 15.0449 35.1719C15.3249 34.9863 15.5365 34.721 15.6797 34.376C15.8229 34.0277 15.8945 33.611 15.8945 33.126V32.7598C15.8945 32.3854 15.8538 32.055 15.7725 31.7686C15.6911 31.4821 15.5706 31.2412 15.4111 31.0459C15.2549 30.8506 15.0612 30.7025 14.8301 30.6016C14.599 30.5007 14.3337 30.4502 14.0342 30.4502H12.4424V29.3906H14.0342C14.5094 29.3906 14.9424 29.4704 15.333 29.6299C15.7269 29.7894 16.0671 30.0189 16.3535 30.3184C16.6432 30.6146 16.8646 30.9694 17.0176 31.3828C17.1738 31.7962 17.252 32.2585 17.252 32.7695V33.126C17.252 33.6338 17.1738 34.096 17.0176 34.5127C16.8646 34.9261 16.6432 35.2809 16.3535 35.5771C16.0671 35.8734 15.7253 36.1012 15.3281 36.2607C14.931 36.4202 14.4899 36.5 14.0049 36.5ZM13.2236 29.3906V36.5H11.8809V29.3906H13.2236ZM19.7373 29.3906V36.5H18.3945V29.3906H19.7373ZM22.6035 32.4619V33.5215H19.3857V32.4619H22.6035ZM22.9795 29.3906V30.4502H19.3857V29.3906H22.9795Z" fill="white"/>
<defs>
<clipPath id="clip0_834_2889">
<rect width="40" height="40" fill="white"/>
</clipPath>
</defs>
</svg>
