<svg width="40" height="40" viewBox="0 0 40 40" fill="none" xmlns="http://www.w3.org/2000/svg">
<rect width="40" height="40" rx="8" fill="#E31B53"/>
<rect x="0.5" y="0.5" width="39" height="39" rx="7.5" stroke="#0F1B2A" stroke-opacity="0.05"/>
<path d="M13.5 27.925C15.7625 26.3625 17.275 23.975 18.3875 21.05C19.5125 18.1375 20.7125 15.6375 20.1875 12.7625C20.1125 12.3125 19.475 11.85 19.15 11.8875C17.875 11.9625 17.9625 13.4 18.0875 14.2625C18.3875 16.4 20.0375 18.8875 21.6375 21.2125C23.225 23.55 24.5375 23.9125 26.3625 24.0375C26.9875 24.075 27.925 23.8625 28.075 23.3125C29.0375 19.8125 16.8 22.6375 12.725 25.9125C12.225 26.325 11.65 27.1625 11.975 27.7375C12.225 28.1875 13.0625 28.2375 13.5125 27.925H13.5Z" stroke="white" stroke-width="1.5" stroke-linecap="round" stroke-linejoin="round"/>
</svg>
