<svg width="40" height="40" viewBox="0 0 40 40" fill="none" xmlns="http://www.w3.org/2000/svg">
<g clip-path="url(#clip0_834_2884)">
<path d="M23.75 5.5H8.75V34.25H31.25V13L23.75 5.5Z" fill="white"/>
<path d="M28.3333 35H11.6666C10.7826 35 9.93474 34.6488 9.30962 34.0237C8.6845 33.3986 8.33331 32.5507 8.33331 31.6667V8.33333C8.33331 7.44928 8.6845 6.60143 9.30962 5.97631C9.93474 5.35119 10.7826 5 11.6666 5H23.3333L31.6666 13.3333V31.6667C31.6666 32.5507 31.3155 33.3986 30.6903 34.0237C30.0652 34.6488 29.2174 35 28.3333 35Z" stroke="#CDD3DD" stroke-width="3" stroke-linecap="round" stroke-linejoin="round"/>
</g>
<rect x="1" y="26" width="26" height="14" rx="3" fill="#EC4A0A"/>
<rect x="1.5" y="26.5" width="25" height="13" rx="2.5" stroke="#0F1B2A" stroke-opacity="0.05"/>
<path d="M7.9209 33.9072H6.08984V32.8525H7.9209C8.22038 32.8525 8.46289 32.8037 8.64844 32.7061C8.83724 32.6051 8.97559 32.4684 9.06348 32.2959C9.15137 32.1201 9.19531 31.9199 9.19531 31.6953C9.19531 31.4772 9.15137 31.2738 9.06348 31.085C8.97559 30.8962 8.83724 30.7432 8.64844 30.626C8.46289 30.5088 8.22038 30.4502 7.9209 30.4502H6.5293V36.5H5.18652V29.3906H7.9209C8.47428 29.3906 8.94629 29.4899 9.33691 29.6885C9.73079 29.8838 10.0303 30.1556 10.2354 30.5039C10.4437 30.849 10.5479 31.2428 10.5479 31.6855C10.5479 32.1445 10.4437 32.54 10.2354 32.8721C10.0303 33.2041 9.73079 33.4596 9.33691 33.6387C8.94629 33.8177 8.47428 33.9072 7.9209 33.9072ZM14.3369 33.9072H12.5059V32.8525H14.3369C14.6364 32.8525 14.8789 32.8037 15.0645 32.7061C15.2533 32.6051 15.3916 32.4684 15.4795 32.2959C15.5674 32.1201 15.6113 31.9199 15.6113 31.6953C15.6113 31.4772 15.5674 31.2738 15.4795 31.085C15.3916 30.8962 15.2533 30.7432 15.0645 30.626C14.8789 30.5088 14.6364 30.4502 14.3369 30.4502H12.9453V36.5H11.6025V29.3906H14.3369C14.8903 29.3906 15.3623 29.4899 15.7529 29.6885C16.1468 29.8838 16.4463 30.1556 16.6514 30.5039C16.8597 30.849 16.9639 31.2428 16.9639 31.6855C16.9639 32.1445 16.8597 32.54 16.6514 32.8721C16.4463 33.2041 16.1468 33.4596 15.7529 33.6387C15.3623 33.8177 14.8903 33.9072 14.3369 33.9072ZM21.0703 29.3906V36.5H19.7324V29.3906H21.0703ZM23.2773 29.3906V30.4502H17.5498V29.3906H23.2773Z" fill="white"/>
<defs>
<clipPath id="clip0_834_2884">
<rect width="40" height="40" fill="white"/>
</clipPath>
</defs>
</svg>
