<svg width="40" height="40" viewBox="0 0 40 40" fill="none" xmlns="http://www.w3.org/2000/svg">
<rect width="40" height="40" rx="8" fill="#0BA5EC"/>
<rect x="0.5" y="0.5" width="39" height="39" rx="7.5" stroke="#0F1B2A" stroke-opacity="0.05"/>
<path d="M13.125 13.4375C13.125 13.1889 13.2238 12.9504 13.3996 12.7746C13.5754 12.5988 13.8139 12.5 14.0625 12.5H25.3125C25.5611 12.5 25.7996 12.5988 25.9754 12.7746C26.1512 12.9504 26.25 13.1889 26.25 13.4375V15.3125C26.25 15.5611 26.1512 15.7996 25.9754 15.9754C25.7996 16.1512 25.5611 16.25 25.3125 16.25C25.0639 16.25 24.8254 16.1512 24.6496 15.9754C24.4738 15.7996 24.375 15.5611 24.375 15.3125V14.375H20.625V25.625H22.1875C22.4361 25.625 22.6746 25.7238 22.8504 25.8996C23.0262 26.0754 23.125 26.3139 23.125 26.5625C23.125 26.8111 23.0262 27.0496 22.8504 27.2254C22.6746 27.4012 22.4361 27.5 22.1875 27.5H17.1875C16.9389 27.5 16.7004 27.4012 16.5246 27.2254C16.3488 27.0496 16.25 26.8111 16.25 26.5625C16.25 26.3139 16.3488 26.0754 16.5246 25.8996C16.7004 25.7238 16.9389 25.625 17.1875 25.625H18.75V14.375H15V15.3125C15 15.5611 14.9012 15.7996 14.7254 15.9754C14.5496 16.1512 14.3111 16.25 14.0625 16.25C13.8139 16.25 13.5754 16.1512 13.3996 15.9754C13.2238 15.7996 13.125 15.5611 13.125 15.3125V13.4375Z" fill="white"/>
</svg>
