<svg width="40" height="40" viewBox="0 0 40 40" fill="none" xmlns="http://www.w3.org/2000/svg">
<g clip-path="url(#clip0_834_2897)">
<path d="M23.75 5.5H8.75V34.25H31.25V13L23.75 5.5Z" fill="white"/>
<path d="M28.3333 35H11.6666C10.7826 35 9.93474 34.6488 9.30962 34.0237C8.6845 33.3986 8.33331 32.5507 8.33331 31.6667V8.33333C8.33331 7.44928 8.6845 6.60143 9.30962 5.97631C9.93474 5.35119 10.7826 5 11.6666 5H23.3333L31.6666 13.3333V31.6667C31.6666 32.5507 31.3155 33.3986 30.6903 34.0237C30.0652 34.6488 29.2174 35 28.3333 35Z" stroke="#CDD3DD" stroke-width="3" stroke-linecap="round" stroke-linejoin="round"/>
</g>
<rect x="1" y="26" width="26" height="14" rx="3" fill="#0BA5EC"/>
<rect x="1.5" y="26.5" width="25" height="13" rx="2.5" stroke="#0F1B2A" stroke-opacity="0.05"/>
<path d="M8.40918 29.3906V36.5H7.07129V29.3906H8.40918ZM10.6162 29.3906V30.4502H4.88867V29.3906H10.6162ZM12.5791 29.3906L14 31.9248L15.4258 29.3906H16.9688L14.8594 32.916L17.0225 36.5H15.4648L14 33.917L12.54 36.5H10.9775L13.1406 32.916L11.0312 29.3906H12.5791ZM20.8994 29.3906V36.5H19.5615V29.3906H20.8994ZM23.1064 29.3906V30.4502H17.3789V29.3906H23.1064Z" fill="white"/>
<defs>
<clipPath id="clip0_834_2897">
<rect width="40" height="40" fill="white"/>
</clipPath>
</defs>
</svg>
