<svg width="40" height="40" viewBox="0 0 40 40" fill="none" xmlns="http://www.w3.org/2000/svg">
<g clip-path="url(#clip0_834_2888)">
<path d="M23.75 5.5H8.75V34.25H31.25V13L23.75 5.5Z" fill="white"/>
<path d="M28.3333 35H11.6666C10.7826 35 9.93474 34.6488 9.30962 34.0237C8.6845 33.3986 8.33331 32.5507 8.33331 31.6667V8.33333C8.33331 7.44928 8.6845 6.60143 9.30962 5.97631C9.93474 5.35119 10.7826 5 11.6666 5H23.3333L31.6666 13.3333V31.6667C31.6666 32.5507 31.3155 33.3986 30.6903 34.0237C30.0652 34.6488 29.2174 35 28.3333 35Z" stroke="#CDD3DD" stroke-width="3" stroke-linecap="round" stroke-linejoin="round"/>
</g>
<rect x="1" y="26" width="26" height="14" rx="3" fill="#039855"/>
<rect x="1.5" y="26.5" width="25" height="13" rx="2.5" stroke="#0F1B2A" stroke-opacity="0.05"/>
<path d="M6.82227 29.3906L8.24316 31.9248L9.66895 29.3906H11.2119L9.10254 32.916L11.2656 36.5H9.70801L8.24316 33.917L6.7832 36.5H5.2207L7.38379 32.916L5.27441 29.3906H6.82227ZM16.6025 35.4453V36.5H13.0283V35.4453H16.6025ZM13.4336 29.3906V36.5H12.0908V29.3906H13.4336ZM21.2217 34.6543C21.2217 34.5176 21.2005 34.3955 21.1582 34.2881C21.1191 34.1774 21.0459 34.0781 20.9385 33.9902C20.8343 33.8991 20.6862 33.8112 20.4941 33.7266C20.3053 33.6387 20.0612 33.5475 19.7617 33.4531C19.4297 33.349 19.1204 33.2318 18.834 33.1016C18.5475 32.9714 18.2952 32.82 18.0771 32.6475C17.8623 32.4749 17.6947 32.2764 17.5742 32.0518C17.4538 31.8239 17.3936 31.5602 17.3936 31.2607C17.3936 30.9678 17.4554 30.7008 17.5791 30.46C17.7061 30.2191 17.8851 30.0124 18.1162 29.8398C18.3473 29.6641 18.6191 29.529 18.9316 29.4346C19.2474 29.3402 19.5957 29.293 19.9766 29.293C20.5039 29.293 20.9596 29.389 21.3438 29.5811C21.7311 29.7731 22.0306 30.0335 22.2422 30.3623C22.4538 30.6911 22.5596 31.0605 22.5596 31.4707H21.2217C21.2217 31.2493 21.1745 31.054 21.0801 30.8848C20.9889 30.7155 20.849 30.582 20.6602 30.4844C20.4746 30.3867 20.2402 30.3379 19.957 30.3379C19.6836 30.3379 19.4557 30.3786 19.2734 30.46C19.0944 30.5413 18.9593 30.652 18.8682 30.792C18.7803 30.932 18.7363 31.0882 18.7363 31.2607C18.7363 31.391 18.7673 31.5081 18.8291 31.6123C18.891 31.7132 18.9837 31.8092 19.1074 31.9004C19.2311 31.9883 19.3841 32.0713 19.5664 32.1494C19.752 32.2243 19.9668 32.2992 20.2109 32.374C20.6016 32.4912 20.9434 32.6214 21.2363 32.7646C21.5326 32.9079 21.7783 33.0706 21.9736 33.2529C22.1722 33.4352 22.3203 33.6403 22.418 33.8682C22.5189 34.096 22.5693 34.3548 22.5693 34.6445C22.5693 34.9505 22.5091 35.224 22.3887 35.4648C22.2682 35.7057 22.0957 35.9108 21.8711 36.0801C21.6465 36.2493 21.3763 36.3779 21.0605 36.4658C20.748 36.5537 20.3981 36.5977 20.0107 36.5977C19.6657 36.5977 19.3239 36.5521 18.9854 36.4609C18.6501 36.3665 18.3457 36.2266 18.0723 36.041C17.7988 35.8522 17.5807 35.6146 17.418 35.3281C17.2552 35.0384 17.1738 34.6999 17.1738 34.3125H18.5215C18.5215 34.5371 18.5573 34.7292 18.6289 34.8887C18.7038 35.0449 18.8079 35.1735 18.9414 35.2744C19.0781 35.3721 19.2376 35.4437 19.4199 35.4893C19.6022 35.5348 19.7992 35.5576 20.0107 35.5576C20.2842 35.5576 20.5088 35.5202 20.6846 35.4453C20.8636 35.3672 20.9971 35.2598 21.085 35.123C21.1761 34.9863 21.2217 34.8301 21.2217 34.6543Z" fill="white"/>
<defs>
<clipPath id="clip0_834_2888">
<rect width="40" height="40" fill="white"/>
</clipPath>
</defs>
</svg>
