<svg width="40" height="40" viewBox="0 0 40 40" fill="none" xmlns="http://www.w3.org/2000/svg">
<g clip-path="url(#clip0_834_2880)">
<path d="M23.75 5.5H8.75V34.25H31.25V13L23.75 5.5Z" fill="white"/>
<path d="M28.3333 35H11.6666C10.7826 35 9.93474 34.6488 9.30962 34.0237C8.6845 33.3986 8.33331 32.5507 8.33331 31.6667V8.33333C8.33331 7.44928 8.6845 6.60143 9.30962 5.97631C9.93474 5.35119 10.7826 5 11.6666 5H23.3333L31.6666 13.3333V31.6667C31.6666 32.5507 31.3155 33.3986 30.6903 34.0237C30.0652 34.6488 29.2174 35 28.3333 35Z" stroke="#CDD3DD" stroke-width="3" stroke-linecap="round" stroke-linejoin="round"/>
</g>
<path d="M16.9412 25.6471C17.7212 25.6471 18.4693 25.957 19.0209 26.5085C19.5725 27.0601 19.8824 27.8082 19.8824 28.5883V31.5294C19.8824 31.9195 19.7274 32.2935 19.4516 32.5693C19.1758 32.8451 18.8018 33 18.4118 33H15.4706C15.0806 33 14.7065 32.8451 14.4307 32.5693C14.1549 32.2935 14 31.9195 14 31.5294V28.5883C14 27.8082 14.3099 27.0601 14.8615 26.5085C15.413 25.957 16.1611 25.6471 16.9412 25.6471Z" stroke="#CDD3DD" stroke-width="2" stroke-linecap="round" stroke-linejoin="round"/>
<path d="M16.941 8H15.4705" stroke="#CDD3DD" stroke-width="2.4" stroke-linecap="round" stroke-linejoin="round"/>
<path d="M19.8823 10.9412H18.4117" stroke="#CDD3DD" stroke-width="2.4" stroke-linecap="round" stroke-linejoin="round"/>
<path d="M16.941 13.8823H15.4705" stroke="#CDD3DD" stroke-width="2.4" stroke-linecap="round" stroke-linejoin="round"/>
<path d="M19.8823 16.8235H18.4117" stroke="#CDD3DD" stroke-width="2.4" stroke-linecap="round" stroke-linejoin="round"/>
<path d="M16.941 19.7646H15.4705" stroke="#CDD3DD" stroke-width="2.4" stroke-linecap="round" stroke-linejoin="round"/>
<path d="M19.8823 22.7058H18.4117" stroke="#CDD3DD" stroke-width="2.4" stroke-linecap="round" stroke-linejoin="round"/>
<rect x="1" y="26" width="26" height="14" rx="3" fill="#F79009"/>
<rect x="1.5" y="26.5" width="25" height="13" rx="2.5" stroke="#0F1B2A" stroke-opacity="0.05"/>
<path d="M12.0615 35.4453V36.5H7.07129V35.4453H12.0615ZM11.9688 30.1768L7.62305 36.5H6.7002V35.6943L11.0654 29.3906H11.9688V30.1768ZM11.4902 29.3906V30.4502H6.71484V29.3906H11.4902ZM14.4883 29.3906V36.5H13.1455V29.3906H14.4883ZM18.6729 33.9072H16.8418V32.8525H18.6729C18.9723 32.8525 19.2148 32.8037 19.4004 32.7061C19.5892 32.6051 19.7275 32.4684 19.8154 32.2959C19.9033 32.1201 19.9473 31.9199 19.9473 31.6953C19.9473 31.4772 19.9033 31.2738 19.8154 31.085C19.7275 30.8962 19.5892 30.7432 19.4004 30.626C19.2148 30.5088 18.9723 30.4502 18.6729 30.4502H17.2812V36.5H15.9385V29.3906H18.6729C19.2262 29.3906 19.6982 29.4899 20.0889 29.6885C20.4827 29.8838 20.7822 30.1556 20.9873 30.5039C21.1956 30.849 21.2998 31.2428 21.2998 31.6855C21.2998 32.1445 21.1956 32.54 20.9873 32.8721C20.7822 33.2041 20.4827 33.4596 20.0889 33.6387C19.6982 33.8177 19.2262 33.9072 18.6729 33.9072Z" fill="white"/>
<defs>
<clipPath id="clip0_834_2880">
<rect width="40" height="40" fill="white"/>
</clipPath>
</defs>
</svg>
