<svg xmlns="http://www.w3.org/2000/svg" width="40" height="40" viewBox="0 0 40 40" fill="none">
  <path d="M0 20C0 4.8 4.8 0 20 0C35.2 0 40 4.8 40 20C40 35.2 35.2 40 20 40C4.8 40 0 35.2 0 20Z" fill="#E4E8EE"/>
  <path d="M0.5 20C0.5 12.4215 1.7041 7.603 4.65355 4.65355C7.603 1.7041 12.4215 0.5 20 0.5C27.5785 0.5 32.397 1.7041 35.3464 4.65355C38.2959 7.603 39.5 12.4215 39.5 20C39.5 27.5785 38.2959 32.397 35.3464 35.3464C32.397 38.2959 27.5785 39.5 20 39.5C12.4215 39.5 7.603 38.2959 4.65355 35.3464C1.7041 32.397 0.5 27.5785 0.5 20Z" stroke="black" stroke-opacity="0.05"/>
</svg>